<?xml version="1.0" encoding="UTF-8" standalone="no"?>
<!-- Created with Inkscape (http://www.inkscape.org/) -->

<svg
   width="1920"
   height="324"
   viewBox="0 0 1920 324"
   version="1.1"
   id="svg1"
   inkscape:version="1.3.2 (091e20ef0f, 2023-11-25)"
   sodipodi:docname="comedorcito_logotipo.svg"
   xml:space="preserve"
   xmlns:inkscape="http://www.inkscape.org/namespaces/inkscape"
   xmlns:sodipodi="http://sodipodi.sourceforge.net/DTD/sodipodi-0.dtd"
   xmlns="http://www.w3.org/2000/svg"
   xmlns:svg="http://www.w3.org/2000/svg"><sodipodi:namedview
     id="namedview1"
     pagecolor="#ffffff"
     bordercolor="#000000"
     borderopacity="0.25"
     inkscape:showpageshadow="2"
     inkscape:pageopacity="0.0"
     inkscape:pagecheckerboard="0"
     inkscape:deskcolor="#d1d1d1"
     inkscape:document-units="px"
     inkscape:zoom="0.53102061"
     inkscape:cx="933.10879"
     inkscape:cy="76.268226"
     inkscape:window-width="1920"
     inkscape:window-height="975"
     inkscape:window-x="0"
     inkscape:window-y="0"
     inkscape:window-maximized="1"
     inkscape:current-layer="g1" /><defs
     id="defs1" /><g
     inkscape:label="Capa 1"
     inkscape:groupmode="layer"
     id="layer1"><g
       id="g1"><path
         style="fill:#265541;fill-opacity:1;stroke:none;stroke-width:1.84084"
         d="m 690.28276,320.38522 c -14.27697,-2.588 -36.50345,-9.00599 -40.73303,-11.76189 -1.65463,-1.07816 -6.22299,-0.41065 -12.88594,1.88286 -31.24642,10.7554 -67.36335,3.46895 -90.11761,-18.18092 -7.05397,-6.71167 -7.66491,-6.91502 -20.21688,-6.73007 -12.52899,0.18469 -13.22704,0.44322 -21.81552,8.08069 -23.50464,20.90177 -59.94934,27.6038 -89.87225,16.52722 -13.83826,-5.12255 -19.29141,-5.12268 -33.12778,-7.2e-4 -36.03346,13.33875 -91.38086,12.09423 -128.82795,-2.89687 l -11.65365,-4.66529 -7.40412,3.77733 c -4.07227,2.07744 -14.71233,6.01789 -23.64471,8.75642 -15.0878,4.62581 -18.59242,4.97927 -49.37576,4.97927 -30.90088,0 -34.24768,-0.34085 -49.63429,-5.05416 C 61.553255,299.96042 29.929916,268.59242 14.22712,219.13406 8.1169136,199.8891 7.1133031,162.68346 12.059378,138.77247 19.809501,101.30573 40.134139,67.788449 68.036947,46.460068 84.481473,33.890171 99.00738,26.562455 120.36004,20.065211 c 14.76296,-4.492118 19.20863,-4.979133 46.69048,-5.114873 26.97972,-0.133282 31.90954,0.33214 44.11541,4.164929 17.3527,5.448926 33.68966,13.598145 43.9295,21.91301 l 7.96814,6.470179 13.20157,-3.9833 c 42.90456,-12.945593 92.4742,-7.858106 133.32552,13.683593 l 15.19574,8.013031 10.36307,-4.744367 c 5.69966,-2.609405 18.12142,-6.012272 27.60389,-7.561918 15.45786,-2.526185 19.01544,-2.527537 34.40165,-0.01286 10.11818,1.653556 21.21375,4.840131 27.03649,7.764719 l 9.87558,4.960228 10.48639,-4.706006 c 13.42369,-6.024202 26.06094,-8.380623 44.76196,-8.346537 16.52044,0.03 34.39379,3.608145 44.96602,9.001704 l 6.90386,3.522075 12.82729,-6.156933 c 46.98006,-22.549864 112.45667,-20.061891 151.49513,5.756492 7.64378,5.055271 10.96116,6.23393 15.03019,5.340225 4.44817,-0.976977 5.54447,-2.493199 7.40226,-10.237132 5.98358,-24.942471 33.3695,-50.4917912 60.93258,-56.8461984 11.47582,-2.64564538 37.73572,-2.34427964 48.57133,0.5574255 19.97691,5.3496933 41.79614,20.2163489 53.51829,36.4649409 l 3.54788,4.917832 13.44154,-3.478256 c 39.3496,-10.18256 88.9954,-4.00003 125.1627,15.586833 l 11.5858,6.27449 15.1067,-6.996421 c 20.7222,-9.597367 35.3631,-13.05219 60.2068,-14.20713 22.8547,-1.062467 47.3064,2.075191 63.7495,8.180271 l 8.8526,3.286975 15.2351,-6.11724 c 8.3795,-3.364485 21.2447,-7.421242 28.589,-9.015023 15.9875,-3.469366 55.3875,-3.930599 68.3403,-0.800059 l 8.9656,2.166913 9.4425,-8.891026 c 11.9894,-11.288553 25.9729,-19.201524 43.4984,-24.614206 11.1265,-3.4362756 17.7377,-4.2302246 34.0558,-4.089751 22.3193,0.1921295 34.3827,3.3814991 50.6499,13.390543 l 8.7978,5.413259 11.6951,-3.708821 c 9.4483,-2.996142 15.0558,-3.545065 29.1835,-2.856676 32.0602,1.56221 55.6139,15.097762 70.8722,40.728009 1.6758,2.815086 2.8414,2.605728 13.0059,-2.336217 46.4978,-22.607713 102.7015,-21.92329 151.7498,1.847948 17.0532,8.264952 21.287,11.346582 35.9653,26.178152 13.3894,13.529276 18.1294,19.864603 24.2837,32.457663 11.2511,23.01942 14.0722,35.50945 14.1383,62.58872 0.065,26.60412 -2.6421,38.87922 -13.5994,61.66832 -17.3221,36.02738 -53.6078,65.2925 -94.8434,76.49418 -22.0172,5.98098 -62.2044,6.99256 -85.6081,2.15501 -9.6228,-1.98918 -22.9091,-5.78208 -29.5251,-8.42875 l -12.028,-4.81213 -10.0537,3.82481 c -13.2392,5.03713 -34.3961,9.00279 -48.0298,9.00279 -22.5537,0 -51.0734,-8.49758 -65.5323,-19.52583 l -6.099,-4.65239 -6.8641,5.27473 c -15.5146,11.92238 -25.5683,16.04543 -45.9223,18.83222 -15.8988,2.17689 -36.2824,0.18747 -48.072,-4.69172 -5.4796,-2.26787 -7.343,-2.1275 -17.488,1.3175 -36.2594,12.3122 -80.674,11.7679 -117.8474,-1.44431 -13.9028,-4.94144 -36.7521,-18.08377 -42.5184,-24.45583 -1.8861,-2.08428 -4.2619,-3.78964 -5.2787,-3.78964 -1.0173,0 -6.5252,4.45985 -12.2398,9.91075 -17.4646,16.65857 -36.6022,23.91577 -62.7209,23.78492 -16.2216,-0.0814 -31.8747,-4.1511 -45.7202,-11.88736 l -9.8886,-5.52532 -11.2814,5.53498 c -19.1516,9.39686 -37.7831,13.45573 -66.5061,14.48839 -19.6257,0.70559 -29.7185,0.18455 -42.3204,-2.18469 -18.80448,-3.53542 -38.7999,-10.1007 -47.90893,-15.73039 l -6.18776,-3.82425 -9.7781,5.49574 c -18.2643,10.26538 -39.70372,15.2674 -69.80143,16.28537 -28.66342,0.96943 -47.52311,-1.51713 -66.66046,-8.78869 l -9.24281,-3.51204 -15.79518,5.5768 c -28.72499,10.14195 -66.5327,13.35775 -95.43957,8.11782 z M 194.45378,247.75064 c 21.65544,-7.31896 31.46999,-16.95462 31.49164,-30.91763 0.0256,-16.48389 -11.81443,-19.49254 -33.05224,-8.39882 -11.04414,5.76895 -14.76937,6.7881 -24.81174,6.7881 -15.78337,0 -27.24405,-6.72719 -34.06532,-19.99583 -4.16569,-8.10304 -4.70292,-11.36046 -4.70292,-28.51667 0,-18.05734 0.37392,-20.04994 5.52254,-29.43123 11.2185,-20.44131 31.47523,-27.20481 55.22537,-18.4392 17.36387,6.40858 20.28689,6.54136 25.66259,1.1657 7.20218,-7.20224 6.38065,-14.90587 -2.48943,-23.34374 -24.38579,-23.197635 -84.06908,-17.223527 -110.7382,11.08457 -20.061823,21.29476 -29.446886,54.80302 -23.780342,84.90492 5.591961,29.70561 26.577792,50.81947 57.523952,57.87486 15.93365,3.63271 43.08416,2.33844 58.2141,-2.77503 z m 558.5297,2.53678 c 20.46671,-5.30351 31.49103,-13.22812 33.68871,-24.21662 0.93025,-4.65128 0.23703,-6.68972 -3.56966,-10.49643 -5.99918,-5.99908 -11.77526,-6.0194 -30.133,-0.10582 -35.10139,11.30722 -58.35414,7.23539 -66.22257,-11.5963 -3.79679,-9.08708 -1.05013,-11.43038 13.39782,-11.43038 14.32816,0 48.19625,-4.88942 58.11931,-8.3905 11.06282,-3.90319 18.16761,-9.76504 21.96187,-18.11966 9.29701,-20.47154 -2.78652,-42.7053 -27.33477,-50.29611 -15.21751,-4.70556 -43.71628,-4.17098 -58.29003,1.09338 -21.71638,7.84441 -36.11813,20.77495 -44.34675,39.81641 -4.67441,10.81661 -5.87592,41.56031 -2.12752,54.43491 5.63301,19.34787 18.45578,31.33458 41.35118,38.65512 13.80105,4.41274 47.65109,4.76029 63.50541,0.652 z M 689.39024,172.0451 c -6.13872,-3.5755 -2.89607,-16.49635 6.29316,-25.07634 13.18329,-12.30918 45.55444,-13.20493 50.08974,-1.386 4.5032,11.73519 -1.67121,22.82246 -14.72878,26.44808 -8.99903,2.49867 -37.37193,2.50842 -41.65412,0.0149 z m 713.75796,75.49727 c 22.9516,-7.08888 35.9181,-24.29978 28.9845,-38.4707 -2.9659,-6.06229 -3.7467,-6.49364 -11.4668,-6.33585 -4.8115,0.0984 -13.2998,2.39514 -20.2491,5.47904 -9.8957,4.3912 -14.5131,5.31721 -26.6923,5.35319 -12.37,0.0366 -16.008,-0.6899 -22.7313,-4.53881 -11.7964,-6.75375 -17.6178,-17.7086 -17.5576,-33.04301 0.056,-14.19683 4.3922,-24.1104 14.3843,-32.88386 11.0545,-9.70599 20.9196,-10.93202 53.764,-6.68155 8.1324,1.05243 9.9936,0.67974 13.3456,-2.67236 8.8806,-8.88025 1.1204,-21.546 -16.3849,-26.74469 -12.5651,-3.73147 -38.2392,-3.78079 -52.3684,-0.1007 -22.7675,5.9303 -40.8219,20.61427 -50.356,40.95702 -4.4923,9.58393 -4.934,12.50326 -4.934,32.61625 0,20.45677 0.3803,22.86464 5.1438,32.5647 9.7536,19.86161 29.6962,33.65084 55.3222,38.25171 13.5309,2.4294 37.3789,0.70267 51.796,-3.75039 z M 356.7724,246.05616 c 22.93542,-7.30212 43.49804,-26.98556 50.63358,-48.46866 4.17615,-12.57329 2.96914,-37.68968 -2.38605,-49.64933 -8.44038,-18.84995 -30.87038,-35.20634 -55.20803,-40.25879 -15.51087,-3.22007 -46.81988,-1.40246 -59.25951,3.44027 -16.44053,6.40018 -28.39606,15.51781 -36.74798,28.02486 -9.72986,14.57054 -13.48823,27.61575 -13.48823,46.81681 0,34.65938 20.69435,56.34905 60.68047,63.59905 14.15259,2.56601 42.2553,0.80043 55.77575,-3.50421 z m -56.43714,-37.76898 c -13.12206,-6.11011 -18.23663,-14.69324 -18.21756,-30.5721 0.0189,-15.7458 5.62138,-26.17732 18.24974,-33.98022 8.0301,-4.96169 10.6455,-5.59363 23.01054,-5.55991 31.51565,0.0862 48.09891,19.21401 40.64785,46.88525 -2.82816,10.50305 -14.74647,22.75955 -24.86239,25.56787 -12.55768,3.48619 -28.35982,2.53349 -38.82818,-2.34089 z m 33.06345,-21.50149 c 5.90589,-4.64557 6.18206,-9.5274 0.82159,-14.52146 -8.48766,-7.90742 -25.42471,-3.04993 -25.42471,7.29168 0,10.35127 15.02269,14.76577 24.60312,7.22978 z m 561.05057,61.90689 c 16.60325,-3.51914 25.27946,-8.30885 35.35942,-19.52014 18.84081,-20.9555 23.23215,-61.37861 13.05764,-120.1975 -5.16667,-29.868423 -11.14477,-37.983882 -29.06258,-39.453066 -7.68181,-0.629877 -10.44845,-0.02578 -14.48879,3.163852 -7.18233,5.670108 -7.92685,13.49101 -4.14985,43.592984 1.82572,14.55037 2.9432,26.83154 2.48326,27.29148 -0.45993,0.45993 -5.3623,-1.40278 -10.89419,-4.13941 -8.80252,-4.3545 -12.24636,-4.97556 -27.58927,-4.97556 -16.12379,0 -18.52427,0.489 -29.9,6.09135 -9.10643,4.48473 -13.8311,8.21681 -17.91319,14.14996 -11.64873,16.93083 -13.91752,43.60729 -5.39382,63.42119 4.18338,9.72442 16.71063,22.73933 25.19152,26.1721 17.58864,7.11924 42.35611,8.84192 63.29985,4.40276 z M 853.72777,221.5545 c -10.81217,-5.5903 -15.62797,-13.99417 -15.62797,-27.27181 0,-11.45182 4.15508,-20.27999 12.45773,-26.4688 7.06779,-5.26828 29.4408,-6.54434 37.91439,-2.16246 9.15986,4.73674 13.0608,12.78963 13.0688,26.97839 0.007,13.28971 -3.57718,20.84344 -13.3145,28.0566 -7.84449,5.81096 -24.14512,6.22118 -34.49845,0.86808 z m 219.94583,26.11083 c 17.2036,-4.39985 28.1499,-10.49187 39.8174,-22.1593 13.9094,-13.90919 18.7173,-25.1788 19.6027,-45.95012 0.6324,-14.83044 0.116,-19.15946 -3.3955,-28.48656 -10.5731,-28.0789 -40.8035,-45.14722 -79.9626,-45.14722 -37.7907,0 -64.6638,15.00531 -78.60046,43.88871 -5.18256,10.74066 -6.00249,14.53444 -6.62703,30.66552 -0.88914,22.96422 2.87765,34.62585 15.4089,47.70427 19.0789,19.9118 59.35739,28.28259 93.75659,19.4847 z m -50.3312,-39.77212 c -12.5634,-6.26059 -17.5184,-15.21623 -17.4075,-31.4619 0.1929,-28.39591 26.2499,-45.38102 56.2422,-36.66198 18.364,5.33864 27.1763,16.31281 27.0961,33.74474 -0.078,16.70463 -11.9422,33.02682 -27.0613,37.22555 -12.8199,3.56003 -28.2864,2.4275 -38.8695,-2.84641 z m 37.1898,-21.10752 c 2.6677,-2.09844 4.8508,-5.35182 4.8508,-7.22978 0,-4.86001 -8.6717,-11.04505 -15.4861,-11.04505 -8.1788,0 -13.9674,4.57767 -13.9674,11.04505 0,10.35127 15.0226,14.76577 24.6027,7.22978 z m 726.7707,60.12047 c 36.8007,-10.91287 59.8995,-45.04373 54.8095,-80.98719 -5.5911,-39.47817 -38.8474,-61.70151 -89.1392,-59.56646 -16.6931,0.70871 -22.5169,1.77247 -32.8976,6.00876 -17.029,6.94984 -32.3536,21.20291 -40.2968,37.48019 -5.669,11.61723 -5.9675,13.28117 -5.9819,33.39612 -0.019,18.32747 0.548,22.31166 4.1761,29.67516 8.8678,17.99891 27.0342,30.66382 51.1669,35.67097 15.9569,3.31088 44.0759,2.49988 58.163,-1.67755 z m -48.8181,-36.10492 c -8.4291,-2.52663 -17.2228,-9.45617 -20.3674,-16.05005 -4.5038,-9.44512 -3.8407,-27.59219 1.3683,-37.45611 8.6547,-16.38676 30.1413,-23.71067 51.4166,-17.52575 18.364,5.33864 27.1763,16.31281 27.0967,33.74474 -0.078,16.70463 -11.9428,33.02682 -27.0619,37.22555 -8.1669,2.2679 -24.9849,2.29989 -32.4523,0.0618 z m 28.26,-23.88193 c 11.2346,-11.23458 -8.0718,-25.07504 -21.6805,-15.54281 -9.2837,6.50268 -2.2458,19.22446 10.6355,19.22446 4.9088,0 8.5908,-1.22719 11.045,-3.68165 z M 452.16273,245.62678 c 7.89457,-2.75211 11.09147,-9.7111 13.26784,-28.88154 3.88574,-34.22671 10.56398,-50.07527 21.10061,-50.07527 4.98911,0 9.88996,7.89519 13.71226,22.09018 3.0748,11.41896 8.37917,21.30347 13.27086,24.72973 2.34572,1.64304 7.91002,2.8829 12.93759,2.8829 11.95835,0 18.81103,-6.62181 31.43291,-30.37392 10.64474,-20.03152 15.85211,-24.77398 22.41817,-20.41669 5.88053,3.90228 8.00778,14.88817 8.15954,42.13804 0.18545,33.29985 2.99614,38.95163 19.14265,38.49254 14.77802,-0.42019 19.64093,-12.23679 20.99215,-51.00967 0.76577,-21.97321 0.34432,-30.05644 -2.06353,-39.57816 -6.17584,-24.42202 -20.04522,-35.94919 -41.37095,-34.38427 -16.31157,1.19695 -23.87222,6.93695 -38.90872,29.53915 -17.86352,26.85162 -19.86702,27.02129 -29.83598,2.52625 -3.61105,-8.87281 -9.06922,-18.20916 -13.53932,-23.15956 -7.07896,-7.83955 -8.11606,-8.33923 -18.93211,-9.12159 -21.25533,-1.53748 -35.47792,8.15214 -46.48211,31.66754 -9.58848,20.49008 -14.34411,71.41829 -7.931,84.93291 4.11199,8.66539 12.35926,11.58147 22.62914,8.00143 z m 749.58417,-3.34055 c 6.3071,-6.30695 6.7211,-11.65326 2.6477,-34.19721 -5.625,-31.13371 -2.1786,-50.24212 10.4498,-57.94172 7.1055,-4.33204 21.3334,-4.90993 39.3148,-1.59677 14.4449,2.66159 21.727,0.26109 24.6508,-8.12557 8.8963,-25.52036 -48.6648,-40.15373 -88.1843,-22.41837 -20.6161,9.25185 -33.4762,28.68914 -36.0935,54.55257 -2.5584,25.28741 9.2181,65.90133 20.9575,72.27524 2.7205,1.47699 8.5301,2.71852 12.911,2.75906 6.4054,0.0594 9.0195,-0.98028 13.3462,-5.30723 z m 290.7121,3.05276 c 7.9666,-3.93635 12.5453,-16.47451 15.6151,-42.76122 3.5198,-30.14085 3.6077,-54.32636 0.2261,-62.41858 -4.9925,-11.94971 -17.7087,-15.58307 -30.597,-8.74236 -12.9056,6.85005 -16.7073,20.6064 -19.4083,70.22924 -1.437,26.4103 0.4091,36.45517 7.7645,42.2407 5.5371,4.35583 19.0221,5.09756 26.3996,1.45222 z m 150.5569,-4.45134 c 11.3487,-5.36711 15.6027,-10.87372 14.7853,-19.13656 -1.0612,-10.72119 -5.8201,-11.26189 -20.0431,-2.27737 -6.9434,4.38587 -13.8611,2.06955 -16.1315,-5.40116 -2.2853,-7.51904 -3.923,-40.95029 -2.3674,-48.32295 l 1.1654,-5.52257 17.4365,-1.22625 c 15.8023,-1.11133 17.8291,-1.68183 21.6169,-6.08544 7.1671,-8.33231 4.7095,-17.75971 -5.4711,-20.98651 -3.298,-1.04543 -12.116,-2.71633 -19.5949,-3.71319 -7.4791,-0.99688 -14.3125,-2.52652 -15.1856,-3.3993 -0.8726,-0.87276 -2.3809,-7.85036 -3.3513,-15.50568 -0.9707,-7.65535 -2.7197,-16.014234 -3.8868,-18.575318 -5.1741,-11.357043 -24.0325,-11.347303 -29.2098,0.01474 -1.1706,2.569398 -2.856,10.467218 -3.7453,17.550728 -0.89,7.08354 -2.61,13.49242 -3.8225,14.242 -1.2131,0.7496 -7.2813,1.90832 -13.4849,2.57494 -21.187,2.27653 -26.9277,5.82886 -26.9277,16.6632 0,8.97419 7.0041,13.39871 23.4866,14.8365 8.1081,0.70731 15.7591,1.91429 17.0012,2.68223 1.5462,0.95548 2.7077,11.3239 3.6794,32.84551 1.5802,34.99598 3.7985,42.55854 14.2818,48.68418 13.1266,7.67034 33.6227,7.69422 49.7688,0.0581 z M 1512.0004,106.61823 c 9.2852,-4.4062 13.0874,-12.912678 10.1522,-22.711695 -2.8226,-9.420763 -9.3188,-12.974197 -23.6195,-12.920047 -18.7601,0.07102 -34.423,10.504256 -34.423,22.928899 0,7.444153 4.6115,13.198963 12.5518,15.664233 7.8425,2.43468 27.4257,0.79359 35.3385,-2.96139 z"
         id="path1" /></g></g></svg>
