<?xml version="1.0" encoding="UTF-8" standalone="no"?>
<!-- Created with Inkscape (http://www.inkscape.org/) -->

<svg
   version="1.1"
   id="svg1"
   width="1024"
   height="1024"
   viewBox="0 0 1024 1024"
   sodipodi:docname="comedorcito.svg"
   inkscape:version="1.3.2 (091e20ef0f, 2023-11-25)"
   xmlns:inkscape="http://www.inkscape.org/namespaces/inkscape"
   xmlns:sodipodi="http://sodipodi.sourceforge.net/DTD/sodipodi-0.dtd"
   xmlns="http://www.w3.org/2000/svg"
   xmlns:svg="http://www.w3.org/2000/svg">
  <defs
     id="defs1" />
  <sodipodi:namedview
     id="namedview1"
     pagecolor="#ffffff"
     bordercolor="#000000"
     borderopacity="0.25"
     inkscape:showpageshadow="2"
     inkscape:pageopacity="0.0"
     inkscape:pagecheckerboard="0"
     inkscape:deskcolor="#d1d1d1"
     inkscape:zoom="0.55311771"
     inkscape:cx="365.20256"
     inkscape:cy="662.60761"
     inkscape:window-width="1920"
     inkscape:window-height="975"
     inkscape:window-x="0"
     inkscape:window-y="0"
     inkscape:window-maximized="1"
     inkscape:current-layer="g1" />
  <g
     inkscape:groupmode="layer"
     inkscape:label="Image"
     id="g1">
    <path
       style="fill:#265541;fill-opacity:1;stroke-width:1.469"
       d="M 124.88771,904.18159 C 82.985118,890.79415 63.163128,835.03779 81.211818,781.32745 c 8.84467,-26.32037 25.616012,-46.93105 46.828152,-57.54796 17.52795,-8.77301 35.68285,-12.08576 95.04177,-17.34198 15.35106,-1.35927 28.49257,-2.99735 29.20337,-3.64019 0.71081,-0.64269 -2.00367,-5.01605 -6.03221,-9.71861 -26.62473,-31.07876 -48.63245,-79.40257 -57.0805,-125.33544 -3.6219,-19.69253 -4.30849,-56.15782 -1.46298,-77.69881 1.32261,-10.01227 2.75108,-18.76457 3.17442,-19.44957 0.69543,-1.12525 9.51495,3.26926 18.10158,9.01937 3.30439,2.21291 3.30524,2.22451 1.07345,14.69001 -3.49467,19.5192 -4.18841,34.57072 -2.43496,52.82923 5.11872,53.30048 24.76471,97.90683 62.23828,141.31227 l 7.01692,8.12769 17.17133,0.98041 c 9.44422,0.53927 29.73129,2.56135 45.08234,4.49352 15.35106,1.93233 28.15643,3.27308 28.45638,2.97973 0.53916,-0.52723 -18.81014,-27.89192 -36.82666,-52.08181 l -9.2999,-12.4865 -13.18275,-2.5781 c -16.50078,-3.22695 -18.65644,-5.21465 -33.84609,-31.20892 -11.41897,-19.54152 -12.2354,-22.98515 -5.66297,-23.88624 2.08969,-0.28659 5.31421,3.47478 12.87443,15.0176 8.91771,13.61543 10.41188,15.22561 12.8949,13.89675 3.25315,-1.74107 3.66684,-0.84394 -8.70998,-18.88783 -9.39092,-13.69093 -10.2965,-17.09006 -5.02132,-18.84845 0.93234,-0.31084 6.17352,6.39603 11.64706,14.90404 5.47354,8.50801 10.69726,15.49884 11.60827,15.53497 0.91101,0.0368 2.3945,-0.82381 3.29667,-1.91072 1.27151,-1.53217 -0.69629,-5.35334 -8.75213,-16.99561 -10.31095,-14.90155 -11.62069,-19.22201 -5.82703,-19.22201 3.83067,0 34.65959,38.12908 35.91857,44.42389 0.48622,2.43119 0.89026,7.80818 0.89782,11.949 0.0223,12.23032 5.75476,20.218 37.27944,51.94665 l 28.07732,28.25903 8.98126,-4.50073 c 4.93969,-2.47541 11.73157,-4.86959 15.09307,-5.32058 3.36149,-0.45084 6.40799,-1.29889 6.76997,-1.88458 0.73801,-1.19414 -35.2853,-71.71573 -50.90353,-99.6523 -19.18342,-34.3135 -38.01275,-59.03105 -64.33344,-84.45123 -21.44761,-20.71379 -26.53293,-23.92297 -38.53803,-24.3196 -17.68942,-0.58437 -44.18103,-8.53342 -60.65787,-18.20076 -44.5232,-26.12298 -79.89554,-77.95824 -92.00211,-134.82158 -4.25201,-19.97133 -4.64932,-49.00605 -0.86348,-63.10337 5.55244,-20.67566 17.739,-36.87932 33.5568,-44.61825 28.33818,-13.86459 75.61226,-2.46186 115.8288,27.9384 19.6868,14.88154 29.70972,24.20468 42.3832,39.42413 29.89533,35.90097 42.47494,64.97666 43.90194,101.47208 1.01709,26.01182 -2.48332,40.92653 -13.54208,57.70074 -2.84296,4.31225 -5.16902,8.42559 -5.16902,9.14085 0,0.71525 7.79937,9.74696 17.33193,20.07052 26.03073,28.19071 43.55785,48.94033 59.64037,70.60604 7.96853,10.73472 14.65386,19.32839 14.85631,19.09701 0.20243,-0.23152 -1.87069,-12.98082 -4.60696,-28.33189 -2.73626,-15.35104 -8.5835,-50.71724 -12.99388,-78.59152 -8.98353,-56.77733 -12.7452,-72.53728 -21.90212,-91.76114 -8.06424,-16.92989 -15.8824,-26.68831 -28.39818,-35.44584 -12.60262,-8.8183 -17.77081,-13.51232 -20.38356,-18.51346 -1.27423,-2.43905 -3.21806,-17.11964 -5.05718,-38.19402 -1.64306,-18.8277 -5.27999,-54.8736 -8.08208,-80.10205 -5.98533,-53.88899 -6.0367,-55.28361 -2.1783,-59.14202 4.20146,-4.20145 9.55166,-1.43106 12.4371,6.44006 3.35364,9.14833 24.84694,95.52832 30.19249,121.34135 4.94785,23.89259 7.09896,28.77971 10.96566,24.913 1.89879,-1.89879 1.21321,-8.7879 -5.69621,-57.23856 -8.79472,-61.67112 -12.05911,-91.66482 -10.60634,-97.45311 1.43519,-5.71831 8.81009,-5.54685 11.82059,0.27482 2.64579,5.1164 9.70553,35.67849 22.91724,99.21019 5.52406,26.56382 10.70792,48.96205 11.5197,49.77383 0.81178,0.81177 2.6019,1.04388 3.97806,0.51581 3.13215,-1.20191 3.00118,-2.8319 -6.77745,-84.3499 -4.00355,-33.37481 -7.27916,-62.8246 -7.27916,-65.44399 0,-8.38841 6.77138,-11.3022 11.05883,-4.75872 1.27191,1.94118 5.95729,17.97164 10.41195,35.62326 4.45467,17.65161 12.43017,47.62852 17.72338,66.61536 15.27565,54.7942 15.48764,55.72801 14.87397,65.52499 -0.4731,7.55305 -1.54445,10.47675 -6.78825,18.52526 -10.64985,16.34601 -12.78257,23.99855 -12.60309,45.22181 0.22399,26.48562 5.28926,59.12295 12.47663,80.39138 3.21492,9.5134 9.07957,28.86556 13.03258,43.0047 7.7998,27.89852 39.70603,155.0016 39.70603,158.17478 0,1.07047 -0.88714,1.94629 -1.97143,1.94629 -1.08428,0 -9.18215,4.53921 -17.99525,10.08704 -8.81312,5.54782 -16.10425,10.00991 -16.20253,9.91574 -0.0984,-0.094 -8.60983,-13.72281 -18.91456,-30.28579 -25.53295,-41.03962 -45.63641,-70.44739 -59.38497,-86.86994 -20.91694,-24.98491 -68.88985,-69.07328 -74.72085,-68.67034 -1.38324,0.0955 -4.34992,0.59142 -6.59263,1.10175 -3.98461,0.90681 -3.68837,1.31328 12.98828,17.82146 28.9426,28.65022 47.61324,53.91527 72.33483,97.8832 27.90135,49.62327 50.28965,91.80211 49.44962,93.16123 -1.31854,2.13342 0.709,7.27066 2.86954,7.27066 1.04012,0 14.6283,-7.94038 30.19598,-17.64533 15.56768,-9.70496 29.73248,-18.00364 31.47736,-18.44154 4.28093,-1.07443 20.1299,12.28524 34.60868,29.17287 l 10.96555,12.79001 h 7.62698 7.62698 l 12.47296,-19.46426 c 31.63824,-49.37193 70.84677,-120.97998 78.14332,-142.71606 4.47324,-13.3256 4.59379,-16.54799 0.66571,-17.79458 -3.97765,-1.26247 -6.71132,1.21206 -11.26412,10.19662 -6.18722,12.20989 -40.83969,62.85531 -67.91958,99.26625 -6.91032,9.29142 -16.49329,22.69253 -21.2955,29.78046 l -8.73128,12.88695 -7.76848,-7.67199 c -8.93988,-8.82885 -9.1561,-7.60973 4.20064,-23.68691 4.94185,-5.94842 7.08077,-9.83451 7.08077,-12.86448 0,-4.8474 8.26406,-140.55795 9.48768,-155.80456 0.42932,-5.34922 2.46727,-15.54642 4.52879,-22.66036 3.84903,-13.28216 4.15734,-18.37735 1.17148,-19.35977 -3.28871,-1.08205 -7.62787,5.86888 -10.61492,17.00408 -6.03185,22.4857 -9.52357,50.6463 -17.75228,143.17115 -3.15424,35.46697 -6.11355,64.86388 -6.57621,65.32646 -0.46266,0.46274 -2.65219,-0.82205 -4.86562,-2.855 -2.21344,-2.0331 -6.06646,-5.09405 -8.56228,-6.80235 l -4.53786,-3.10607 2.66076,-18.06355 c 8.53638,-57.95237 21.84069,-177.83193 21.83718,-196.76542 -0.003,-15.22936 -2.45564,-20.66826 -12.48423,-27.68272 -4.03975,-2.82559 -13.38933,-11.1663 -20.77685,-18.53488 -11.6793,-11.64939 -14.4081,-15.38785 -20.91418,-28.65257 -11.47634,-23.39816 -14.13099,-35.37089 -14.13099,-63.73215 0,-17.53282 0.66498,-26.24237 2.61758,-34.28287 3.50831,-14.4468 10.90271,-37.34991 15.19432,-47.0622 1.91873,-4.34228 3.4886,-8.56246 3.4886,-9.37822 0,-0.97968 -7.69472,-1.12544 -22.66669,-0.4294 l -22.6667,1.05376 -1.58469,-5.63106 c -0.87158,-3.09708 -1.97945,-8.01956 -2.46192,-10.93883 l -0.87723,-5.30779 14.47836,-1.82243 c 7.9631,-1.00234 22.88689,-1.79862 33.16395,-1.76954 l 18.6856,0.0529 9.41896,-12.01968 c 18.54332,-23.66332 40.17613,-41.25816 56.59554,-46.03142 18.23437,-5.30087 33.97568,0.61064 53.06289,19.9273 21.0092,21.26177 34.8268,48.92198 45.19533,90.47247 2.82264,11.31132 5.27521,20.73989 5.45017,20.95239 0.17495,0.21251 4.84664,-1.31816 10.38151,-3.40149 19.98001,-7.52044 33.67809,-10.02179 55.02403,-10.04768 16.1643,-0.0196 21.97617,0.58469 31.42932,3.26806 51.10369,14.50624 86.72128,53.96331 94.99174,105.23163 2.48692,15.41624 1.00931,43.8572 -3.01198,57.97485 -13.8174,48.50903 -53.5768,87.82243 -106.85939,105.6608 -16.93935,5.67107 -28.12642,7.51614 -45.9297,7.57503 -16.9696,0.0558 -24.3782,1.63075 -28.77802,6.11679 -1.83827,1.87429 -14.18708,23.56982 -27.44181,48.2123 -28.8077,53.55771 -51.19997,93.87884 -63.1272,113.67113 -9.82431,16.30267 -9.71562,17.00999 2.6201,17.04746 9.2777,0.0279 23.21127,3.59126 29.68153,7.59003 2.71475,1.67774 5.14452,2.80989 5.3995,2.51581 6.6904,-7.71829 44.3582,-56.66876 50.14951,-65.1709 l 8.00495,-11.752 -0.006,-15.56524 -0.006,-15.56509 8.44674,-11.74436 c 4.64572,-6.45934 11.41625,-16.14652 15.0456,-21.52703 6.88966,-10.21396 8.08727,-10.98636 12.28106,-7.91968 2.70822,1.98022 3.62855,0.11021 -15.58114,31.65006 -2.10433,3.4551 -2.509,5.32366 -1.39429,6.43833 2.93317,2.93316 5.7429,-0.0147 14.80511,-15.51543 4.9763,-8.51374 9.64433,-15.84817 10.37344,-16.29886 0.72909,-0.45055 2.3656,0.22065 3.63666,1.49177 2.68765,2.68768 2.5597,3.00161 -9.65264,23.6775 -7.0342,11.90773 -8.09098,16.63951 -3.71703,16.63951 1.77416,0 13.74454,-19.90597 18.81226,-31.28354 1.25166,-2.81005 2.74154,-3.96982 4.71811,-3.6725 6.82114,1.02595 6.21585,4.34619 -4.79155,26.28278 -12.31179,24.53612 -16.74638,29.56172 -29.0147,32.88181 -4.69917,1.27171 -10.14013,3.12075 -12.09101,4.10909 -2.25059,1.1401 -8.45506,10.38789 -16.97465,25.30089 -7.38515,12.92721 -16.84959,29.2882 -21.03207,36.35777 -6.49443,10.9774 -7.19489,12.85375 -4.7985,12.85375 1.5433,0 16.52922,-2.64331 33.30204,-5.87394 16.77282,-3.23063 36.15597,-6.60081 43.07365,-7.48926 6.91769,-0.8886 13.89972,-1.86637 15.51562,-2.1728 3.43282,-0.65136 13.61135,-13.09629 24.79532,-30.31664 28.44633,-43.79972 42.91582,-95.29834 39.90545,-142.02798 -0.60394,-9.37473 -1.19609,-19.11523 -1.3159,-21.64544 -0.19027,-4.01801 0.99074,-5.54474 9.33066,-12.06123 l 9.54851,-7.46076 1.8819,9.12324 c 2.99637,14.52591 2.79727,60.52444 -0.33827,78.15509 -7.87624,44.28699 -23.43078,82.8177 -47.27909,117.11681 -4.3357,6.2356 -7.88307,11.93416 -7.88307,12.66337 0,0.72921 7.43681,2.12198 16.52626,3.09489 28.5165,3.05273 70.42405,8.79976 81.89679,11.23125 38.79362,8.2217 66.59267,39.34321 75.04251,84.01141 2.74872,14.53062 1.01571,41.12364 -3.6185,55.52573 -8.15613,25.3473 -22.08337,39.70988 -44.24751,45.63038 -15.05803,4.02242 -26.70204,2.46689 -84.70824,-11.31585 -109.32077,-25.97546 -243.33143,-39.61057 -346.97679,-35.30347 -99.99681,4.15552 -171.62836,14.8328 -262.41776,39.11553 -57.42244,15.35825 -64.62758,16.33382 -81.30051,11.00691 z m 30.50516,-30.04371 c 13.73843,-4.13465 21.25661,-11.89494 18.51352,-19.10992 -2.49423,-6.56028 -6.50145,-7.33516 -15.6216,-3.02057 -11.69776,5.53387 -20.56342,2.67579 -26.6429,-8.58895 -3.82596,-7.08925 -3.45452,-29.5541 0.70944,-42.90717 5.41121,-17.35271 12.02003,-23.75418 28.07943,-27.19824 12.37041,-2.65302 16.55237,-11.52974 8.05485,-17.09756 -4.5755,-2.99794 -18.0599,-1.90353 -27.38846,2.2229 -19.62872,8.68267 -33.26668,35.87754 -33.28902,66.38002 -0.0195,26.69498 11.2577,45.46117 30.07157,50.04136 6.84978,1.66761 10.0061,1.53746 17.51317,-0.72187 z m 729.65385,-3.80603 c 7.75487,-2.15414 17.92406,-11.7899 22.00666,-20.85231 2.93172,-6.50782 3.50101,-10.15021 3.50995,-22.45765 0.009,-13.04032 -0.5383,-18.8521 -3.58427,-24.7843 0,0 -2.48425,-5.21345 -4.95823,-7.85466 -2.47395,-2.64123 -8.27756,-7.99717 -21.35357,-7.72639 -19.25899,0.11606 -36.93276,24.85505 -36.93276,51.69663 0,23.52678 18.94503,38.19152 41.31222,31.97868 z m -16.96658,-21.37763 c -1.26841,-1.26849 -2.72116,-3.95954 -3.22831,-5.9803 -2.37306,-9.45493 4.67738,-30.42859 11.79694,-35.09355 3.56229,-2.33409 4.05447,-2.33717 7.54881,-0.047 4.939,3.23606 6.55173,7.9207 6.51269,18.91749 -0.0363,10.21631 -3.83743,20.39502 -8.56029,22.92258 -4.31036,2.30692 -11.40679,1.94438 -14.06984,-0.71863 z m -631.54236,4.7882 c 2.55313,-1.33135 6.70369,-4.91352 9.22346,-7.96021 18.67831,-22.58398 5.33652,-71.45337 -20.45176,-74.91228 -19.47066,-2.61159 -33.14056,12.15848 -34.88585,37.69338 -0.42255,6.18185 0.0182,14.85542 0.99309,19.54565 1.89172,9.10089 8.68625,20.43644 15.04362,25.09773 7.41925,5.44 20.23531,5.66827 30.07744,0.53573 z m -20.05372,-19.87117 c -9.28148,-9.28158 -7.24801,-41.17755 2.71544,-42.59367 13.95577,-1.98359 20.86692,38.16831 7.77568,45.17457 -4.41839,2.36465 -5.91331,1.9968 -10.49112,-2.5809 z m 580.04621,19.05441 c 2.91001,-2.91009 3.03626,-3.58773 6.96774,-37.39517 l 2.53214,-21.77426 16.82466,0.47375 c 16.69954,0.47038 16.84641,0.4451 19.74763,-3.39736 2.61027,-3.45699 2.70895,-4.31769 0.92237,-8.04528 -2.43449,-5.07935 -5.60656,-6.11412 -22.34724,-7.2905 l -13.00843,-0.91401 0.92861,-4.62955 c 0.51076,-2.54622 1.3231,-10.24835 1.80523,-17.11593 0.80156,-11.41779 0.61375,-12.72227 -2.19427,-15.24087 -3.60992,-3.23782 -9.93121,-3.59875 -12.79927,-0.73068 -1.55524,1.55523 -6.52797,28.46379 -6.52797,35.32432 0,0.66722 -4.91066,1.21325 -10.91257,1.21325 -12.58099,0 -15.52944,1.81701 -15.52944,9.5701 0,6.87007 4.23436,9.52691 15.1836,9.52691 h 8.65388 l -0.77599,4.77425 c -0.4268,2.62584 -1.95737,15.0981 -3.40128,27.71622 -2.48753,21.73827 -2.49231,23.14499 -0.0913,26.80927 3.06944,4.68464 9.91351,5.23389 14.02197,1.12554 z m -511.61094,-9.16113 c 2.49174,-2.7504 2.85219,-6.00263 3.28895,-29.67602 l 0.49052,-26.58714 5.81225,12.36531 c 6.1669,13.1198 7.45311,14.61053 12.63712,14.64623 4.1252,0.0278 7.06334,-4.41934 9.68397,-14.65945 2.46878,-9.64678 2.87683,-8.66828 6.12322,14.68193 1.29179,9.29142 3.06492,18.71977 3.94026,20.95192 2.98761,7.61823 14.81476,6.69144 16.82511,-1.31844 1.53313,-6.10841 -9.22557,-82.50288 -12.97125,-92.10531 -1.77997,-4.56315 -7.31942,-7.4302 -11.68137,-6.04566 -4.8548,1.54083 -6.7792,6.75871 -9.96622,27.0224 -1.70854,10.8634 -3.3427,19.98781 -3.63147,20.27662 -0.51383,0.5137 -6.81017,-16.34131 -11.76639,-31.49816 -3.57823,-10.94288 -7.29437,-15.1404 -13.40404,-15.1404 -7.89291,0 -9.08803,3.31127 -10.86004,30.0894 -2.29843,34.73303 -2.03774,68.73849 0.57485,74.9913 1.83642,4.39525 2.81319,5.09434 7.11733,5.09434 3.20341,0 5.99027,-1.10543 7.7872,-3.08887 z m 455.14051,0.85585 c 2.28849,-1.73137 3.1748,-5.43501 4.64674,-19.4174 1.00036,-9.50296 2.66797,-24.69846 3.7058,-33.76778 l 1.88692,-16.48968 -3.48448,-3.70907 c -6.11373,-6.50782 -13.70487,-4.13671 -16.17958,5.05366 -1.98461,7.37041 -5.85346,43.62401 -5.87407,55.04404 -0.0133,6.9444 0.63448,9.41144 3.17834,12.11925 3.63391,3.86816 7.9951,4.28801 12.12033,1.16698 z m -43.35732,-5.22098 c 13.46788,-2.88834 19.14379,-11.68341 11.81825,-18.31301 -2.6651,-2.41181 -3.74381,-2.52036 -9.5696,-0.96218 -8.5438,2.28517 -11.65928,2.21451 -16.67278,-0.37813 -12.76943,-6.60331 -7.7487,-34.39033 7.65251,-42.35247 3.29414,-1.70301 10.15677,-3.26323 16.73951,-3.80559 12.71685,-1.0477 15.29168,-3.05654 12.84296,-10.01947 -1.9876,-5.65168 -8.38512,-8.35273 -19.84236,-8.37741 -17.47679,-0.0382 -32.53437,10.3942 -40.67731,28.18072 -4.37388,9.55379 -5.88184,24.55479 -3.39302,33.75353 2.84902,10.53023 12.72488,19.65066 24.34025,22.47835 6.44825,1.56977 8.61202,1.54348 16.76159,-0.20434 z M 404.01043,829.26682 c 6.9209,-3.05802 9.96823,-7.48941 8.67994,-12.62239 -1.38334,-5.51169 -5.20598,-6.69042 -13.46204,-4.15124 -11.47485,3.52912 -22.63603,0.12779 -22.63603,-6.89932 0,-2.06409 2.38137,-3.12602 11.38475,-5.07628 16.61989,-3.60022 21.89612,-8.07348 18.03424,-15.28935 -2.22198,-4.15184 -6.9227,-4.9592 -17.60068,-3.02291 -5.05195,0.91606 -9.52266,1.32827 -9.9349,0.91606 -0.41225,-0.41219 0.67289,-3.0511 2.41142,-5.8641 3.81494,-6.17259 13.50916,-11.19893 21.59949,-11.19893 3.87655,0 6.96139,-1.01713 9.0847,-2.99529 4.00212,-3.72847 4.03567,-5.84824 0.17037,-10.76219 -2.75199,-3.49857 -3.98741,-3.86743 -12.85375,-3.83836 -11.71625,0.0382 -20.45459,3.5237 -28.66582,11.43295 -14.27442,13.74941 -19.43699,39.78964 -11.15134,56.24802 3.30122,6.55734 11.85246,14.21847 17.18121,15.39264 2.20704,0.48639 4.67387,1.1373 5.48181,1.44653 2.97249,1.13789 16.33702,-1.09148 22.27663,-3.71584 z m 235.62955,2.84487 c 1.92444,-1.02993 2.84143,-3.07888 2.84143,-6.34888 0,-3.78371 -2.0603,-7.30622 -9.52523,-16.2852 -9.02443,-10.85474 -10.3898,-14.03924 -6.01939,-14.03924 3.57664,0 15.31696,-11.75259 17.08158,-17.09945 3.88816,-11.78124 -1.43166,-23.5353 -12.57867,-27.79247 -5.41653,-2.06849 -8.17435,-2.26563 -15.40594,-1.10101 l -8.80836,1.41847 v -6.03142 c 0,-8.29222 -3.26183,-12.56113 -9.59794,-12.56113 -8.15014,0 -8.89218,2.56663 -12.31623,42.60101 -3.93564,46.01571 -3.93508,50.53877 0.006,54.48024 2.26054,2.26064 4.09246,2.81371 6.97775,2.10685 6.19073,-1.51661 7.66244,-3.99305 9.2687,-15.59669 0.82803,-5.98176 1.70977,-11.08154 1.9594,-11.33304 0.24963,-0.25134 3.60191,3.71495 7.44952,8.814 14.84015,19.66713 20.30347,23.244 28.66691,18.76796 z M 604.2874,784.62594 c 0,-1.09925 0.42042,-5.06599 0.9343,-8.81502 0.8619,-6.28821 1.35068,-6.94118 6.3078,-8.42634 7.75369,-2.32308 12.48767,-1.30948 13.06995,2.79844 0.70258,4.95656 -3.5227,10.42139 -10.51082,13.59414 -7.31511,3.32125 -9.80123,3.53662 -9.80123,0.84878 z m -142.3587,39.38847 c 2.32815,-1.204 6.68175,-4.32503 9.67471,-6.93575 3.66059,-3.19316 5.11432,-3.87845 4.44143,-2.09391 -0.55018,1.45902 -0.0491,4.92953 1.11365,7.71226 1.84303,4.41097 2.77811,5.05938 7.29653,5.05938 3.76929,0 5.75869,-0.90138 7.29513,-3.30525 1.95121,-3.05288 5.98935,-50.19678 9.02822,-105.40079 1.02703,-18.6569 -0.35247,-22.54035 -8.24389,-23.20801 -8.64506,-0.73142 -10.31697,2.56517 -11.93186,23.52678 -0.76456,9.92398 -1.69077,20.69881 -2.05826,23.94397 l -0.66817,5.90024 -8.46756,0.19465 c -19.40195,0.44598 -34.07003,12.51574 -41.30302,33.98665 -5.02661,14.92123 -3.4963,27.16844 4.53812,36.31913 7.07662,8.05982 18.71143,9.76841 29.28497,4.30065 z M 446.61466,804.742 c -2.06589,-2.06586 -0.89329,-15.46446 1.81571,-20.747 4.89129,-9.53777 15.2162,-16.46763 24.53541,-16.46763 3.91996,0 3.92064,10e-4 3.16364,9.43274 -0.84449,10.52054 -4.84034,17.56131 -14.03029,24.72152 -4.89934,3.8172 -13.10567,5.43912 -15.48447,3.06037 z m 102.58521,19.72148 c 13.85998,-6.99479 20.09448,-18.05592 21.00099,-37.25959 0.80486,-17.05084 -2.03536,-27.65452 -9.67492,-36.1208 -10.20129,-11.30529 -21.81639,-13.11863 -33.45898,-5.22348 -21.65487,14.68456 -26.52816,60.92607 -7.88755,74.84337 8.80386,6.57304 21.33676,8.14298 30.02046,3.7605 z M 531.52206,804.1973 c -8.57475,-9.47492 -0.48491,-43.82309 9.95402,-42.26301 11.0318,1.64851 13.38931,31.64462 3.28148,41.75239 -4.29378,4.29389 -9.62563,4.49954 -13.2355,0.51062 z m 222.85498,-53.79114 c 3.53692,-3.2008 3.40216,-8.01472 -0.35819,-12.79529 -3.98744,-5.06907 -11.88823,-5.38329 -15.23461,-0.60566 -3.06775,4.37982 -2.88045,7.33619 0.75783,11.96148 3.57406,4.54376 10.64654,5.22993 14.83497,1.43947 z M 472.21043,608.75338 c -4.77389,-21.34357 -11.73324,-50.37498 -15.46524,-64.51411 -3.73199,-14.13912 -11.06422,-42.52565 -16.29384,-63.0811 -5.22961,-20.55542 -10.27421,-37.84689 -11.21024,-38.42538 -2.5166,-1.55537 -5.24449,-0.0602 -6.1405,3.36667 -1.05102,4.01904 1.89285,28.04174 9.8664,80.51181 3.62196,23.83453 7.05809,47.29212 7.63582,52.12792 0.95191,7.96801 2.84616,11.65035 20.20267,39.27285 10.53375,16.76423 19.36208,30.27068 19.6185,30.01433 0.25643,-0.25648 -3.43966,-17.92929 -8.21357,-39.27299 z m 103.12308,-14.20083 c 12.82327,-16.98004 44.20906,-61.32887 54.05121,-76.37555 12.10875,-18.51177 11.30925,-26.63621 -4.60006,-46.74565 -11.24963,-14.21965 -21.80555,-34.16124 -25.8064,-48.75191 -2.79083,-10.17786 -3.22848,-10.40284 -14.64448,-7.52826 -3.7158,0.93566 -7.76442,3.17829 -9.32939,5.16782 -3.2856,4.17696 -3.36994,5.26506 -7.44321,96.00927 -1.61387,35.95377 -3.35599,71.48523 -3.87133,78.95878 -0.51535,7.47353 -0.54007,13.58825 -0.0549,13.58825 0.48515,0 5.74951,-6.44524 11.69859,-14.32275 z M 734.29396,485.64583 c 52.89313,-10.93348 96.42587,-59.55397 100.1104,-111.81066 3.33897,-47.35622 -23.21444,-89.33439 -66.27072,-104.76709 -24.64284,-8.83274 -56.4104,-6.49147 -81.5822,6.01262 l -11.01751,5.47293 -1.02639,14.69 c -3.02563,43.30327 -22.83918,83.60555 -50.02138,101.74736 -6.40131,4.27232 -6.55297,5.46633 -2.40347,18.9232 10.97089,35.57869 35.92498,61.20718 67.70306,69.53244 13.68403,3.5851 27.82199,3.64827 44.50821,0.1992 z m -51.93309,-11.91521 c -16.32812,-5.87395 -30.35033,-17.86496 -37.58406,-32.14012 -4.96201,-9.79199 -4.78189,-11.16688 0.39821,-3.03966 9.07218,14.23374 31.04991,30.77263 47.90922,36.05311 5.5636,1.74252 5.66495,1.86768 1.5467,1.90999 -2.42386,0.0251 -7.94539,-1.22764 -12.27007,-2.78332 z m 101.36866,-31.90243 c 13.69471,-14.64892 22.54321,-30.64595 27.85861,-50.36501 2.63658,-9.78115 2.26891,-35.66414 -0.66773,-47.00802 -6.9517,-26.85339 -24.24227,-48.13238 -49.47333,-60.88524 -11.69167,-5.90947 -12.98718,-6.88771 -8.05612,-6.08326 9.32796,1.52177 29.20818,12.00353 37.99109,20.03061 31.56679,28.85027 37.09129,78.89876 13.38773,121.28469 -5.53129,9.89088 -18.56201,24.93504 -26.23113,30.28412 -2.75709,1.92308 -0.68986,-0.96734 5.19088,-7.25789 z M 279.20936,441.3136 c 14.2857,-6.947 24.31251,-20.92484 28.17158,-39.27246 6.30448,-29.97419 -8.29347,-68.17851 -37.88672,-99.15341 -24.28907,-25.4231 -51.48534,-40.52213 -73.48837,-40.79986 -10.92511,-0.13794 -5.55456,-2.58777 5.98788,-2.7315 27.29479,-0.33986 64.83285,25.36423 90.46719,61.94716 4.39335,6.2698 8.30467,11.39962 8.69183,11.39962 1.3521,0 -6.95011,-14.02642 -13.41785,-22.66918 -19.27552,-25.75769 -49.03258,-49.27832 -73.08233,-57.76591 -12.52001,-4.41851 -31.73333,-6.04198 -39.84046,-3.36639 -7.0715,2.33381 -14.63344,11.47669 -18.01622,21.78281 -2.19929,6.70043 -2.71811,12.41294 -2.56408,28.23165 0.16472,16.9143 0.84592,22.34588 4.63093,36.92433 9.18747,35.38675 28.05112,70.4737 47.84142,88.98657 10.29599,9.63138 26.4859,18.62794 37.67808,20.93734 10.98431,2.26652 24.58911,0.52782 34.82712,-4.45077 z m -39.76913,-7.93294 c -13.45527,-4.79661 -28.20883,-18.92811 -36.2814,-34.75162 -2.84681,-5.58024 -8.72349,-25.23642 -8.72145,-29.17134 6.4e-4,-1.22819 2.01459,2.023 4.47543,7.22482 14.40795,30.45591 38.28216,49.98447 62.67282,51.2649 9.33097,0.48985 11.42704,0.0899 17.59536,-3.35768 l 7.00249,-3.91376 -3.52198,3.74897 c -1.93708,2.06194 -6.8448,5.40481 -10.90604,7.42861 -8.54399,4.25767 -22.76975,4.9299 -32.31523,1.5271 z M 576.02422,399.5345 c 32.25885,-7.60579 57.86961,-34.98191 68.25306,-72.95774 2.9488,-10.78475 3.34564,-15.63383 3.34564,-40.88162 0,-24.51499 -0.49822,-30.97556 -3.4551,-44.80453 -9.91795,-46.38501 -28.29319,-82.5844 -49.20533,-96.93501 -8.30364,-5.69823 -8.99021,-5.89482 -20.56601,-5.88892 -10.5273,0.006 -12.9481,0.53835 -20.01701,4.40701 -29.71891,16.26452 -65.26571,73.74869 -75.84709,122.65543 -3.8546,17.81582 -3.53236,47.93943 0.68357,63.90153 9.56125,36.20012 36.59633,65.45981 65.59185,70.98913 10.9575,2.08953 20.95486,1.93412 31.21642,-0.48528 z m -33.16397,-11.83506 c -16.1465,-4.34519 -31.22674,-16.84737 -39.86064,-33.04622 -2.61959,-4.91484 -4.48621,-9.2128 -4.14802,-9.55097 0.33817,-0.33818 2.87915,2.40712 5.6466,6.10066 6.32498,8.44153 14.4989,15.17001 24.87017,20.47223 15.17579,7.75847 36.99184,6.56051 56.00757,-3.07549 10.80752,-5.4766 24.0753,-17.37415 32.3075,-28.971 l 7.52318,-10.598 -0.97551,5.876 c -1.74068,10.48505 -9.61357,24.41817 -19.09886,33.8004 -18.19683,17.99911 -40.58723,24.82797 -62.27199,18.99239 z m 10.62312,298.50626 c -0.46046,-1.20002 -0.0312,-3.72084 0.95404,-5.60189 2.50852,-4.78953 23.44384,-35.00349 24.25396,-35.00349 1.70471,0 -20.43422,40.35433 -23.01346,41.94835 -0.74649,0.4614 -1.73404,-0.1425 -2.19454,-1.34297 z M 431.3056,650.37457 c -13.0064,-25.32323 -17.09999,-34.15427 -15.83198,-34.15427 0.79723,0 22.22026,34.60335 29.16324,47.1057 4.1249,7.42787 4.95706,10.04606 3.6184,11.38477 -0.9562,0.95616 -2.14774,1.73857 -2.64787,1.73857 -0.50015,0 -6.93595,-11.73365 -14.30179,-26.07477 z m -47.01731,-82.26404 c -4.97838,-7.06956 -11.42298,-16.159 -14.32131,-20.19876 l -5.26972,-7.345 5.36288,5.876 c 7.76594,8.5089 25.7296,34.52152 23.83978,34.52152 -0.30801,0 -4.63323,-5.7842 -9.61163,-12.85376 z m -97.09584,-320.34324 -7.87033,-6.98531 7.87033,-5.20024 c 8.36963,-5.5302 26.71549,-15.99164 28.04391,-15.99164 0.43684,0 1.61559,4.35304 2.61947,9.67339 1.52157,8.06397 1.48815,9.98003 -0.20091,11.51645 -2.03395,1.85014 -21.43325,14.10704 -22.1889,14.01942 -0.22179,-0.0257 -3.94489,-3.19014 -8.27357,-7.03207 z m 392.1883,-22.1422 c -0.78972,-3.70268 -1.26167,-6.90631 -1.0488,-7.11917 0.21289,-0.21288 5.13458,1.36574 10.93714,3.50804 5.80255,2.14229 10.1639,4.28127 9.6919,4.75326 -0.472,0.47199 -4.74757,1.92284 -9.50129,3.2241 l -8.64314,2.36592 z"
       id="path1"
       sodipodi:nodetypes="ssssscssssssscsssscsssssssscsssssscsssssssssssssssssssssssssssssssssssssssssssssssssssssssssssscccsssssscssssssssssscsssssssssscsscsscssssssssssscssssscscccssssscsscssssssssssscsssscsssscssssssssssssssssssssscszcsscsscssccssssssssssssscsssscsssssssscsssssscscssssssssssssssssscsscssssssssscssssssssssssssssssssssssssssscsssssssssssssssssssssssssscsssssssssssssssssssssssssssssssssssssssssssssscssscssssccsssscssssssssssssssssssssssssssssssscsssssssscsssssssssssscsssssssssssssssscsssscssssssssssscs" />
  </g>
</svg>
