<?xml version="1.0" encoding="UTF-8" standalone="no"?>
<!-- Created with Inkscape (http://www.inkscape.org/) -->

<svg
   width="512mm"
   height="512mm"
   viewBox="0 0 512 512"
   version="1.1"
   id="svg1"
   xml:space="preserve"
   inkscape:version="1.3 (0e150ed6c4, 2023-07-21)"
   xmlns:inkscape="http://www.inkscape.org/namespaces/inkscape"
   xmlns:sodipodi="http://sodipodi.sourceforge.net/DTD/sodipodi-0.dtd"
   xmlns="http://www.w3.org/2000/svg"
   xmlns:svg="http://www.w3.org/2000/svg"><sodipodi:namedview
     id="namedview1"
     pagecolor="#ffffff"
     bordercolor="#000000"
     borderopacity="0.25"
     inkscape:showpageshadow="2"
     inkscape:pageopacity="0.0"
     inkscape:pagecheckerboard="0"
     inkscape:deskcolor="#d1d1d1"
     inkscape:document-units="mm"
     inkscape:zoom="0.25"
     inkscape:cx="1150"
     inkscape:cy="514"
     inkscape:window-width="1920"
     inkscape:window-height="991"
     inkscape:window-x="-9"
     inkscape:window-y="-9"
     inkscape:window-maximized="1"
     inkscape:current-layer="layer1" /><defs
     id="defs1" /><g
     inkscape:label="Capa 1"
     inkscape:groupmode="layer"
     id="layer1"><path
       style="fill:#265541;fill-opacity:1;stroke-width:0.954985"
       d="m 193.02892,463.82813 c -15.58889,-3.16312 -31.09976,-7.65852 -45.47046,-14.47772 -8.67426,-4.11613 -17.81158,-8.00435 -25.97868,-13.28649 -8.79635,-5.68913 -17.68342,-11.68962 -24.527081,-19.64943 -19.456448,-22.62965 -31.615565,-51.61898 -37.107575,-81.47957 -2.354567,-12.80197 -2.800913,-36.50776 -0.951071,-50.51137 0.859819,-6.50891 1.788455,-12.19872 2.063666,-12.64404 0.452093,-0.7315 6.185592,2.12534 11.767691,5.86344 2.148159,1.4386 2.14871,1.44614 0.697842,9.54985 -2.271856,12.68929 -2.722851,22.47417 -1.582948,34.34388 5.313123,31.47388 18.690688,73.16008 45.491836,96.56273 7.09772,6.19769 26.96294,8.49119 26.96294,8.49119 0,0 11.87827,2.1306 31.53735,-2.40854 0,0 -12.22831,-18.13232 -23.94072,-33.85797 l -6.04579,-8.11737 -8.57,-1.67603 c -10.72701,-2.09787 -12.1284,-3.38998 -22.00307,-20.28866 -7.42338,-12.70379 -7.95414,-14.94245 -3.68145,-15.52826 1.35849,-0.18624 3.45473,2.25894 8.36956,9.76283 5.79734,8.8513 6.76868,9.89804 8.38287,9.03417 2.11485,-1.13185 2.38378,-0.54863 -5.66229,-12.27884 -6.10496,-8.90035 -6.69367,-11.11009 -3.26431,-12.25321 0.6061,-0.20196 4.01335,4.158 7.57165,9.68899 3.55831,5.531 6.95421,10.07566 7.54644,10.09916 0.59225,0.0245 1.55666,-0.53554 2.14315,-1.24214 0.8266,-0.99605 -0.45265,-3.48017 -5.68969,-11.04871 -6.70307,-9.68738 -7.55452,-12.49608 -3.78811,-12.49608 2.49029,0 22.53192,24.78742 23.35038,28.87962 0.31609,1.58049 0.57875,5.07602 0.58366,7.76796 0.0145,7.95084 3.74114,13.14352 24.23506,33.77008 l 18.25285,18.37097 9.71276,-1.16493 c 3.56633,-0.42774 8.70453,-0.0403 10.22278,-1.63919 1.95047,-2.05406 -0.11917,-4.42503 0.11622,-4.80577 0.47976,-0.77631 -22.93869,-46.62184 -33.09199,-64.78318 -12.47098,-22.30693 -24.71179,-38.37561 -41.82266,-54.90107 -13.94292,-13.46587 -17.24884,-15.55214 -25.05326,-15.80997 -11.49975,-0.37989 -28.721724,-5.54751 -39.433193,-11.83218 -28.944291,-16.98233 -51.939568,-50.68004 -59.809953,-87.64641 -2.764198,-12.98322 -3.022485,-31.85845 -0.561341,-41.023 3.609597,-13.44109 11.531984,-23.97496 21.815008,-29.00598 18.422425,-9.01326 49.15493,-1.60043 75.299369,18.16254 12.79824,9.67437 19.31406,15.73527 27.55298,25.62931 19.43472,23.33893 27.61263,42.24082 28.5403,65.96617 0.6612,16.91007 -1.6144,26.60601 -8.8036,37.51079 -1.84818,2.80337 -3.36033,5.47744 -3.36033,5.9424 0,0.46498 5.07031,6.33642 11.26734,13.04771 16.92238,18.32654 28.3166,31.8157 38.77173,45.90042 5.18028,6.97856 9.52637,12.56523 9.65797,12.41481 0.13169,-0.15062 -1.21612,-8.43874 -2.99494,-18.41835 -1.77882,-9.97959 -5.58007,-32.97086 -8.44723,-51.09171 -5.84012,-36.91051 -8.28553,-47.15592 -14.23838,-59.65319 -5.24251,-11.00598 -10.32502,-17.34986 -18.46145,-23.04306 -8.19284,-5.7327 -11.55265,-8.78425 -13.25118,-12.03545 -0.82837,-1.58561 -2.09203,-11.12933 -3.28762,-24.82963 -1.06815,-12.23974 -3.43249,-35.67289 -5.25411,-52.073703 -3.89101,-35.032804 -3.9244,-35.939435 -1.41609,-38.447756 2.73134,-2.731331 6.20946,-0.930321 8.08526,4.18663 2.18017,5.947258 16.1528,62.102209 19.6279,78.883049 3.21656,15.53238 4.61499,18.70946 7.12868,16.19574 1.23439,-1.23438 0.78871,-5.71294 -3.70306,-37.21033 -5.71738,-40.091907 -7.83953,-59.590571 -6.89509,-63.353492 0.93301,-3.717427 5.72737,-3.605963 7.68447,0.178651 1.72,3.32613 6.30948,23.194302 14.89831,64.495761 3.59114,17.26892 6.96114,31.82983 7.48887,32.35757 0.52772,0.52772 1.69148,0.67861 2.5861,0.33532 2.03619,-0.78135 1.95104,-1.84099 -4.40596,-54.8352 -2.60269,-21.6967 -4.73214,-40.841772 -4.73214,-42.544617 0,-5.45324 4.40204,-7.347471 7.18926,-3.093605 0.82687,1.261946 3.87278,11.683218 6.76873,23.158397 2.89594,11.475169 8.08079,30.962925 11.52185,43.306115 9.9306,35.62128 10.06841,36.22834 9.66946,42.59727 -0.30758,4.91018 -1.00404,6.81085 -4.41299,12.04313 -6.92338,10.62642 -8.30984,15.60126 -8.19318,29.39833 0.14571,17.2181 3.43851,38.43536 8.11096,52.2618 2.09001,6.1846 5.90256,18.76529 8.47238,27.95702 5.07056,18.1366 25.81255,100.76531 25.81255,102.82817 0,0.6959 -0.57673,1.26525 -1.28163,1.26525 -0.70488,0 -5.96921,2.9509 -11.69852,6.55752 -5.72938,3.6066 -10.46925,6.50735 -10.53316,6.44614 -0.0639,-0.0612 -5.59717,-8.9211 -12.29618,-19.68856 -16.59879,-26.67953 -29.66788,-45.79727 -38.60571,-56.47346 -13.59793,-16.24248 -44.78475,-44.90398 -48.57543,-44.64202 -0.89924,0.0622 -2.82785,0.38448 -4.28582,0.71623 -2.59036,0.58952 -2.39778,0.85375 8.44357,11.58558 18.81536,18.62529 30.953,35.04989 47.02429,63.63311 18.13844,32.25969 31.54974,59.71341 32.14682,60.56335 5.53575,7.8803 19.02456,-5.05831 21.49564,-6.74448 10.12043,-6.30911 19.32884,-11.70401 20.46315,-11.98869 2.78301,-0.69848 13.08633,7.98651 22.49883,18.96504 l 7.12863,8.31468 h 4.95824 4.95821 l 8.10857,-12.65356 c 20.56774,-32.0963 46.05692,-78.64811 50.80038,-92.77858 2.90798,-8.66286 2.98639,-10.75771 0.43276,-11.56811 -2.58586,-0.82071 -4.36297,0.78797 -7.32272,6.62875 -4.02228,7.93755 -26.54956,40.86174 -44.15398,64.5322 -4.49236,6.04027 -10.72213,14.75226 -13.84404,19.36004 l -5.67614,8.3777 -5.05023,-4.9875 c -5.81173,-5.73955 -5.9523,-4.94703 2.73084,-15.39867 3.21265,-3.86701 4.60311,-6.39334 4.60311,-8.3631 0,-3.15125 5.37244,-91.3756 6.16786,-101.2873 0.27912,-3.47748 1.60398,-10.1066 2.94415,-14.73131 2.50225,-8.63464 2.70267,-11.94699 0.76156,-12.58566 -2.13797,-0.70344 -4.95882,3.81532 -6.90068,11.05423 -3.92126,14.61777 -6.1912,32.92476 -11.54062,93.07442 -2.05052,23.0568 -3.97433,42.16749 -4.2751,42.46821 -0.30076,0.30084 -1.72418,-0.53441 -3.16312,-1.856 -1.43892,-1.3217 -3.94374,-3.3116 -5.56625,-4.42216 l -2.95005,-2.01922 1.72974,-11.74298 c 5.54942,-37.67437 14.19847,-115.60711 14.19616,-127.91566 -0.002,-9.90045 -1.59639,-13.43626 -8.1159,-17.99628 -2.6262,-1.83691 -8.70429,-7.25913 -13.50684,-12.04938 -7.5926,-7.57319 -9.36659,-10.00352 -13.59613,-18.62682 -7.46069,-15.21095 -9.18644,-22.99432 -9.18644,-41.43175 0,-11.39795 0.43229,-17.05996 1.70168,-22.28703 2.28072,-9.39174 7.08775,-24.28087 9.87769,-30.59476 1.24734,-2.82288 2.26792,-5.566387 2.26792,-6.096707 0,-0.636883 -5.00229,-0.731639 -14.73544,-0.27915 l -14.73541,0.685043 -1.03021,-3.660708 c -0.56662,-2.01338 -1.28683,-5.213452 -1.6005,-7.111246 l -0.57028,-3.450553 9.41227,-1.184746 c 5.17676,-0.651612 14.87858,-1.169282 21.55962,-1.150364 l 12.14734,0.03439 6.12319,-7.813899 c 12.05483,-15.383355 26.11817,-26.821598 36.79231,-29.924657 11.85402,-3.446054 22.08731,0.396972 34.49575,12.954577 13.65793,13.822108 22.64063,31.803791 29.38113,58.81544 1.83498,7.3534 3.42938,13.48283 3.54312,13.62097 0.11376,0.13816 3.15077,-0.85692 6.74892,-2.21128 12.98886,-4.88897 21.89385,-6.51508 35.77069,-6.53191 10.50829,-0.0128 14.28653,0.3801 20.43196,2.12454 33.22208,9.43039 56.37679,35.08111 61.75337,68.41024 1.61673,10.02197 0.65615,28.5112 -1.95806,37.68899 -8.98258,31.53534 -34.82986,57.09266 -69.46844,68.68923 -11.01213,3.68672 -18.28477,4.8862 -29.85854,4.92447 -11.03179,0.0364 -15.84806,1.06015 -18.70836,3.97648 -1.19505,1.21848 -9.22291,15.32256 -17.83971,31.34243 -18.72766,34.81745 -33.28469,61.02989 -41.03847,73.8967 -6.38671,10.59823 -6.75325,12.00574 1.2337,12.72598 32.77887,2.95584 34.70826,-6.36296 55.87729,-37.44093 l 5.20395,-7.63987 -0.005,-10.11884 -0.005,-10.11874 5.49117,-7.63491 c 3.02012,-4.19919 7.42162,-10.49674 9.78103,-13.99455 4.4789,-6.64001 5.25745,-7.14215 7.98381,-5.14854 1.7606,1.28735 2.35889,0.0717 -10.12918,20.57546 -1.368,2.24613 -1.63107,3.46087 -0.90641,4.18552 1.90683,1.90681 3.73341,-0.01 9.62469,-10.08647 3.23504,-5.53471 6.26971,-10.30276 6.74369,-10.59575 0.47396,-0.29289 1.53787,0.1435 2.36417,0.96977 1.74722,1.74725 1.66403,1.95134 -6.27512,15.39256 -4.57287,7.74113 -5.25988,10.81721 -2.41639,10.81721 1.15335,0 8.9352,-12.94071 12.22969,-20.33717 0.81368,-1.82678 1.78224,-2.58075 3.0672,-2.38745 4.43437,0.66696 4.04087,2.82542 -3.11494,17.08621 -8.00381,15.95074 -10.8867,19.21783 -18.86223,21.3762 -3.05489,0.82672 -6.59202,2.02878 -7.86028,2.67129 -1.46308,0.74117 -5.49656,6.75309 -11.03507,16.44791 -4.80104,8.40389 -10.78292,19.14551 -13.6728,23.6359 -1.26897,1.97176 0.5532,3.71398 0.5532,3.71398 0,0 7.29625,1.3342 9.92178,1.28263 l 26.19544,-0.51451 c 9.67084,-0.18993 9.08951,0.54681 19.94793,-6.22582 1.92733,-1.20211 12.20218,-12.17963 16.11924,-19.70859 14.75483,-28.36022 27.89924,-61.9527 25.94223,-92.33127 -0.39264,-6.09444 -0.77758,-12.42665 -0.85547,-14.07151 -0.12359,-2.61208 0.64409,-3.60461 6.06579,-7.84091 l 6.20739,-4.8502 1.22342,5.93095 c 1.94789,9.44317 3.04523,34.18955 -0.21991,50.80799 -5.2765,26.8554 -14.69976,53.95789 -30.73576,76.13671 -7.46238,10.32095 -18.14755,18.29321 -29.16308,24.68596 -13.89822,8.06571 -29.85383,12.05528 -45.29737,16.49527 -13.45706,3.86889 -27.24209,6.63171 -41.07784,8.78415 -22.70283,3.5319 -45.6212,6.67659 -68.59701,6.74399 -22.94545,0.0673 -46.0574,-1.77023 -68.54468,-6.33308 z m 50.91696,-102.23287 c -3.10346,-13.87528 -7.62769,-32.74837 -10.05384,-41.94011 -2.42611,-9.19174 -7.19272,-27.6456 -10.59246,-41.00853 -3.39972,-13.3629 -6.67919,-24.60394 -7.28769,-24.98002 -1.63606,-1.01114 -3.40943,-0.0391 -3.99191,2.18864 -0.68325,2.61275 1.23053,18.22972 6.41408,52.3401 2.35461,15.49461 4.58842,30.74421 4.964,33.88792 0.61881,5.17996 1.85025,7.5738 13.1336,25.53099 6.84789,10.89828 12.58711,19.67871 12.75381,19.51207 0.16684,-0.16683 -2.23611,-11.65568 -5.33959,-25.53106 z m 67.03947,-9.23183 c -13.83272,0 28.73996,-39.86942 35.13826,-49.65115 7.87179,-12.03436 7.35206,-17.31599 -2.99046,-30.38897 -7.31331,-9.24408 -14.1756,-22.20796 -16.77653,-31.69324 -1.8143,-6.61656 -2.0988,-6.76281 -9.52026,-4.89407 -2.4156,0.60826 -5.04758,2.06619 -6.06497,3.35956 -2.13593,2.71542 -2.19075,3.42277 -4.83875,62.41486 -1.04916,23.37327 -2.1817,46.47201 -2.51675,51.33048 -0.33499,4.85847 -0.35105,8.83362 -0.0356,8.83362 0.31541,0 14.02258,-9.31109 7.60518,-9.31109 z m 103.3389,-70.79941 c 34.38541,-7.10776 62.6857,-38.71558 65.081,-72.68722 2.17062,-30.78588 -15.09155,-58.07557 -43.08207,-68.10825 -16.02014,-5.74209 -36.67193,-4.22002 -53.03594,3.90876 l -7.1624,3.55791 -0.66725,9.54986 c -1.96695,28.15109 -14.84755,54.35129 -32.51849,66.14512 -4.16145,2.7774 -4.26005,3.55363 -1.56249,12.30182 7.13211,23.12944 23.35454,39.79031 44.01322,45.20251 8.89588,2.33065 18.08686,2.37171 28.93442,0.12949 z m -33.76128,-7.74598 c -10.61476,-3.8186 -19.73051,-11.61386 -24.43308,-20.89403 -3.22578,-6.36572 -3.10867,-7.25952 0.25887,-1.97607 5.89773,9.25324 20.18531,20.00505 31.1454,23.43786 3.61684,1.13279 3.68274,1.21415 1.00549,1.24167 -1.57572,0.0172 -5.16523,-0.7981 -7.97668,-1.80943 z m 65.89896,-20.7395 c 8.90282,-9.52317 14.65517,-19.9227 18.11068,-32.74192 1.714,-6.35865 1.47499,-23.18496 -0.43409,-30.55953 -4.51925,-17.45717 -15.75973,-31.29047 -32.16222,-39.581 -7.60065,-3.84171 -8.44286,-4.47764 -5.23723,-3.95468 6.06402,0.98929 18.98801,7.8034 24.69771,13.02174 20.52132,18.75533 24.11276,51.29145 8.70325,78.8462 -3.59585,6.42996 -12.06702,16.21007 -17.05265,19.68746 -1.79236,1.2502 -0.44846,-0.62885 3.37455,-4.71827 z m -327.9845,-0.33456 c 9.28702,-4.51621 15.80536,-13.60306 18.31412,-25.53072 4.09848,-19.48595 -5.39152,-44.32229 -24.62985,-64.45882 -15.790127,-16.52735 -33.470213,-26.34312 -47.774205,-26.52366 -7.102327,-0.0897 -3.610974,-1.68229 3.892673,-1.77573 17.744121,-0.22093 42.147312,16.48908 58.811992,40.27137 2.85608,4.07593 5.3988,7.41078 5.65049,7.41078 0.87899,0 -4.51821,-9.11845 -8.72284,-14.73704 -12.53086,-16.74488 -31.875685,-32.03545 -47.510231,-37.55316 -8.139159,-2.87244 -20.629585,-3.92784 -25.899964,-2.18846 -4.597126,1.51719 -9.513085,7.46089 -11.712202,14.16083 -1.42974,4.35589 -1.76702,8.06955 -1.666888,18.35316 0.107072,10.99586 0.549927,14.52688 3.01053,24.00421 5.972703,23.00466 18.23581,45.81438 31.101328,57.84945 6.69334,6.26126 17.218269,12.10988 24.494216,13.61121 7.140811,1.47346 15.985181,0.34315 22.640831,-2.89342 z m -25.853591,-5.15715 c -8.747168,-3.11823 -18.338335,-12.305 -23.586249,-22.59174 -1.850688,-3.62767 -5.671071,-16.40598 -5.669744,-18.96406 4.15e-4,-0.79841 1.309668,1.31516 2.909441,4.69681 9.366494,19.79912 24.886922,32.49449 40.743093,33.32687 6.06599,0.31845 7.4286,0.0585 11.43861,-2.18277 l 4.55226,-2.54432 -2.28961,2.43719 c -1.25927,1.34044 -4.44976,3.51361 -7.08994,4.82925 -5.55438,2.7679 -14.802417,3.20492 -21.007861,0.99277 z m 218.810541,-22.0031 c 20.97121,-4.94448 37.62056,-22.74147 44.37076,-47.42924 1.91698,-7.01108 2.17497,-10.16342 2.17497,-26.57681 0,-15.93701 -0.32389,-20.13696 -2.24613,-29.12707 C 349.28639,92.296079 337.3408,68.763145 323.746,59.433926 c -5.39815,-3.704372 -5.84447,-3.832175 -13.3698,-3.82834 -6.84371,0.004 -8.41748,0.349979 -13.01291,2.864964 -19.32002,10.573434 -42.42869,47.94344 -49.30757,79.73732 -2.50583,11.58193 -2.29635,31.16504 0.44439,41.54188 6.21569,23.5334 23.79096,42.55488 42.6407,46.14945 7.12341,1.35838 13.6226,1.25735 20.29357,-0.31547 z m -21.55965,-7.69389 c -10.4967,-2.82476 -20.30024,-10.95233 -25.91309,-21.48306 -1.70296,-3.19511 -2.91642,-5.98918 -2.69657,-6.20901 0.21991,-0.21991 1.8717,1.56484 3.67079,3.96598 4.11183,5.48778 9.42563,9.86189 16.16792,13.30883 9.86565,5.04371 24.04808,4.26493 36.41005,-1.99934 7.02589,-3.5603 15.65115,-11.29483 21.00286,-18.83384 l 4.89077,-6.88965 -0.63416,3.81992 c -1.1316,6.81626 -6.24974,15.87407 -12.41602,21.97337 -11.82962,11.70107 -26.38545,16.14048 -40.48255,12.3468 z m 6.906,194.05655 c -0.29934,-0.78011 -0.0197,-2.41888 0.62023,-3.64175 1.63077,-3.11364 15.24066,-22.75549 15.7673,-22.75549 1.10823,0 -13.28411,26.23405 -14.96087,27.2703 -0.4853,0.29995 -1.12727,-0.0926 -1.42666,-0.87306 z m -79.42674,-23.29354 c -8.45536,-16.46241 -11.11658,-22.20341 -10.29225,-22.20341 0.51827,0 14.44524,22.49536 18.95879,30.62303 2.68157,4.8288 3.22257,6.53087 2.35231,7.40115 -0.62161,0.62161 -1.39624,1.13024 -1.72136,1.13024 -0.32513,0 -4.50901,-7.62795 -9.29749,-16.95101 z m -30.56558,-53.47917 c -3.23642,-4.59588 -7.42597,-10.50484 -9.31017,-13.13107 l -3.42581,-4.77492 3.48637,3.81994 c 5.04858,5.53156 16.7266,22.44216 15.49803,22.44216 -0.20025,0 -3.01201,-3.76025 -6.24842,-8.35611 z m -63.12124,-208.2526 -5.11644,-4.54109 5.11644,-3.38064 c 5.44105,-3.59511 17.36753,-10.39603 18.23112,-10.39603 0.28399,0 1.05029,2.82987 1.7029,6.28859 0.98916,5.24232 0.96743,6.48794 -0.13062,7.48675 -1.32225,1.20276 -13.93358,9.17087 -14.42483,9.11391 -0.14418,-0.0167 -9.14114,-4.57149 -5.37858,-4.57149 z m 254.95845,-14.39447 c -0.51337,-2.40708 -0.82019,-4.48973 -0.6818,-4.62811 0.13833,-0.1384 3.33794,0.88786 7.11013,2.28055 3.7722,1.39268 6.60747,2.78322 6.30063,3.09006 -0.30683,0.30683 -3.08633,1.25002 -6.1767,2.09596 l -5.61886,1.53806 z"
       id="path1"
       sodipodi:nodetypes="asasssssssacsscsssssssscsssssscssssssssssssssssssssssssssssssssssssssssssssssssssssssssssscccsssssscssssssssssscsssssssssscsscsscssssssssssscssssscccssssscsscsssssssscsssassscsaaaaaaassssssssssscssssscssssssssccsssssssssssssssssssssssssssssssssssscssssssssssssssssssssscssssssscssscsssscsssscssscssssssscsssssc" /></g></svg>
