<?xml version="1.0" encoding="UTF-8" standalone="no"?>
<!-- Created with Inkscape (http://www.inkscape.org/) -->

<svg
   width="800mm"
   height="210mm"
   viewBox="0 0 800 210"
   version="1.1"
   id="svg1"
   xml:space="preserve"
   inkscape:version="1.3 (0e150ed6c4, 2023-07-21)"
   xmlns:inkscape="http://www.inkscape.org/namespaces/inkscape"
   xmlns:sodipodi="http://sodipodi.sourceforge.net/DTD/sodipodi-0.dtd"
   xmlns="http://www.w3.org/2000/svg"
   xmlns:svg="http://www.w3.org/2000/svg"><sodipodi:namedview
     id="namedview1"
     pagecolor="#ffffff"
     bordercolor="#000000"
     borderopacity="0.25"
     inkscape:showpageshadow="2"
     inkscape:pageopacity="0.0"
     inkscape:pagecheckerboard="0"
     inkscape:deskcolor="#d1d1d1"
     inkscape:document-units="mm"
     inkscape:zoom="0.25"
     inkscape:cx="1482"
     inkscape:cy="-42"
     inkscape:window-width="1920"
     inkscape:window-height="991"
     inkscape:window-x="-9"
     inkscape:window-y="-9"
     inkscape:window-maximized="1"
     inkscape:current-layer="layer1" /><defs
     id="defs1" /><g
     inkscape:label="Capa 1"
     inkscape:groupmode="layer"
     id="layer1"><g
       id="g1"
       transform="translate(21.111405,1.9119057)"><path
         style="fill:#265541;fill-opacity:1;stroke-width:0.388673"
         d="m 90.995264,187.67282 c -6.344575,-1.28737 -12.657403,-3.11697 -18.506186,-5.89234 -3.530371,-1.67524 -7.249203,-3.25772 -10.573161,-5.40752 -3.58006,-2.31544 -7.197041,-4.7576 -9.982367,-7.99719 -7.918652,-9.21013 -12.867336,-21.0086 -15.102549,-33.16167 -0.958294,-5.21032 -1.139954,-14.85843 -0.38708,-20.55781 0.349941,-2.64908 0.72789,-4.9648 0.839899,-5.14604 0.183999,-0.29772 2.517497,0.865 4.789376,2.38638 0.874287,0.5855 0.874511,0.58857 0.284017,3.88673 -0.924631,5.16446 -1.108183,9.14684 -0.64425,13.97774 2.162408,12.80967 7.606992,29.77569 18.514892,39.30042 2.888725,2.52242 10.973746,3.45586 10.973746,3.45586 0,0 4.83438,0.86714 12.835501,-0.98026 0,0 -4.976845,-7.37974 -9.74372,-13.77998 l -2.460599,-3.30372 -3.487936,-0.68213 c -4.365825,-0.85382 -4.936183,-1.3797 -8.955111,-8.25736 -3.021269,-5.17036 -3.237283,-6.08148 -1.498327,-6.3199 0.552897,-0.0758 1.406051,0.91937 3.406359,3.97341 2.359478,3.60242 2.75481,4.02844 3.411776,3.67685 0.860729,-0.46066 0.970185,-0.22329 -2.304516,-4.99741 -2.484681,-3.62239 -2.724282,-4.52174 -1.328557,-4.98698 0.246681,-0.0822 1.63341,1.69228 3.081618,3.94336 1.448207,2.25108 2.830316,4.10073 3.071354,4.11029 0.241038,0.01 0.633545,-0.21796 0.872244,-0.50554 0.336421,-0.40539 -0.184226,-1.41641 -2.315667,-4.49676 -2.728106,-3.9427 -3.074641,-5.08582 -1.541735,-5.08582 1.013531,0 9.170349,10.08832 9.503455,11.75382 0.128645,0.64325 0.235547,2.06591 0.237548,3.16151 0.0059,3.23594 1.522621,5.34933 9.863518,13.74421 l 7.428791,7.47687 3.953027,-0.47412 c 1.451481,-0.17409 3.542695,-0.0164 4.16061,-0.66714 0.793826,-0.83599 -0.04853,-1.80096 0.04725,-1.95592 0.19526,-0.31595 -9.3359,-18.97479 -13.468228,-26.36634 -5.075613,-9.07878 -10.05754,-15.61863 -17.021556,-22.34439 -5.67468,-5.48052 -7.020171,-6.32962 -10.19652,-6.43456 -4.680326,-0.15461 -11.689564,-2.2578 -16.049062,-4.81562 C 30.923025,100.99205 21.564093,87.277299 18.360896,72.232219 17.235885,66.948136 17.130764,59.266033 18.132434,55.536117 c 1.469083,-5.470435 4.693444,-9.757654 8.87857,-11.805245 7.49781,-3.66834 20.005744,-0.651368 30.64637,7.392035 5.208799,3.937407 7.860697,6.404155 11.213888,10.430967 7.909806,9.498795 11.238162,17.191745 11.615722,26.847815 0.269105,6.88229 -0.657045,10.82848 -3.583009,15.266651 -0.7522,1.14095 -1.367636,2.22928 -1.367636,2.41852 0,0.18924 2.063583,2.57888 4.58574,5.31033 6.887298,7.45879 11.524678,12.94879 15.779848,18.68118 2.10834,2.84023 3.87717,5.11397 3.93073,5.05275 0.0536,-0.0613 -0.49495,-3.43451 -1.21892,-7.49615 -0.72397,-4.06163 -2.27105,-13.41893 -3.43797,-20.794 -2.37689,-15.022341 -3.37216,-19.192161 -5.79493,-24.278471 -2.13367,-4.47936 -4.202222,-7.06128 -7.513688,-9.37838 C 78.532705,70.850949 77.165288,69.60899 76.473998,68.285771 76.136858,67.640439 75.622553,63.7562 75.135953,58.18027 74.701226,53.198774 73.738955,43.66163 72.997569,36.986603 71.41395,22.728474 71.400359,22.359481 72.421227,21.33861 c 1.111636,-1.111634 2.52721,-0.378635 3.29065,1.703932 0.887317,2.420496 6.574086,25.275202 7.988429,32.104899 1.309119,6.321581 1.878267,7.614632 2.901331,6.591565 0.50239,-0.502388 0.321,-2.325132 -1.507122,-15.144369 -2.326936,-16.317151 -3.19064,-24.252984 -2.806261,-25.784469 0.379727,-1.512969 2.331003,-1.467604 3.127531,0.07271 0.700032,1.353714 2.567922,9.439934 6.063522,26.249363 1.46157,7.028344 2.83314,12.954542 3.04792,13.169326 0.21478,0.21478 0.68842,0.276193 1.05253,0.136474 0.82871,-0.318005 0.79406,-0.749273 -1.7932,-22.317577 -1.05928,-8.830419 -1.92595,-16.622342 -1.92595,-17.315389 0,-2.219434 1.7916,-2.990374 2.92598,-1.259078 0.33653,0.513604 1.5762,4.754996 2.75483,9.425321 1.17863,4.670321 3.288823,12.601712 4.689313,17.625314 4.04169,14.497632 4.09778,14.744702 3.93541,17.33682 -0.12518,1.998411 -0.40864,2.771973 -1.79606,4.901475 -2.81777,4.324882 -3.38205,6.349612 -3.33457,11.964932 0.0593,7.00766 1.39945,15.64295 3.30111,21.270221 0.85062,2.51709 2.4023,7.63735 3.4482,11.37833 2.0637,7.38148 10.50555,41.01084 10.50555,41.85041 0,0.28323 -0.23472,0.51495 -0.52161,0.51495 -0.28688,0 -2.42943,1.201 -4.76123,2.66887 -2.33181,1.46786 -4.26092,2.64845 -4.28692,2.62354 -0.026,-0.0249 -2.27802,-3.63083 -5.00448,-8.01312 -6.755593,-10.8584 -12.074633,-18.6392 -15.712273,-22.98434 -5.534276,-6.61059 -18.227108,-18.27564 -19.769894,-18.16902 -0.365982,0.0253 -1.150916,0.15648 -1.7443,0.2915 -1.054261,0.23993 -0.975881,0.34747 3.436482,4.71526 7.65773,7.58037 12.59767,14.26508 19.138592,25.89827 7.38223,13.12949 12.840533,24.30298 13.083543,24.6489 2.25301,3.20723 7.74287,-2.0587 8.74859,-2.74496 4.11895,-2.56777 7.86671,-4.76346 8.32837,-4.87932 1.13267,-0.28428 5.32605,3.25046 9.15688,7.71865 l 2.90131,3.38402 h 2.01797 2.01797 l 3.30014,-5.14992 c 8.37094,-13.06299 18.74487,-32.00928 20.67542,-37.76029 1.18354,-3.52573 1.21544,-4.37832 0.17613,-4.70815 -1.05242,-0.33402 -1.7757,0.3207 -2.9803,2.69786 -1.63703,3.23053 -10.8055,16.63047 -17.97038,26.2642 -1.82836,2.45835 -4.36384,6.00407 -5.63444,7.87941 l -2.31015,3.40967 -2.05541,-2.02988 c -2.36534,-2.33596 -2.42255,-2.01341 1.11142,-6.26716 1.30753,-1.57385 1.87345,-2.60205 1.87345,-3.40373 0,-1.28254 2.18654,-37.18929 2.51028,-41.22329 0.1136,-1.41531 0.6528,-4.11332 1.19825,-5.99555 1.01839,-3.51424 1.09996,-4.862341 0.30995,-5.122271 -0.87014,-0.2863 -2.01821,1.552801 -2.80853,4.498991 -1.59593,5.94934 -2.51978,13.40017 -4.69696,37.8807 -0.83456,9.38397 -1.61754,17.1619 -1.73995,17.28429 -0.12241,0.12244 -0.70173,-0.2175 -1.28736,-0.75538 -0.58564,-0.53792 -1.60509,-1.3478 -2.26544,-1.79979 l -1.20064,-0.82181 0.70399,-4.77932 c 2.25857,-15.33323 5.77868,-47.05136 5.77775,-52.060851 -7.9e-4,-4.02943 -0.64972,-5.46848 -3.30312,-7.32438 -1.06885,-0.74761 -3.54259,-2.95442 -5.4972,-4.90402 -3.09014,-3.08224 -3.81214,-4.07137 -5.53354,-7.581 -3.03645,-6.19076 -3.73882,-9.35854 -3.73882,-16.862459 0,-4.638892 0.17594,-6.943294 0.69257,-9.070676 0.92824,-3.822383 2.88467,-9.882164 4.02016,-12.451874 0.50766,-1.148895 0.92303,-2.265484 0.92303,-2.481321 0,-0.259207 -2.0359,-0.297772 -5.99723,-0.113612 l -5.99723,0.278808 -0.41929,-1.489885 c -0.23061,-0.819433 -0.52373,-2.121842 -0.65138,-2.894232 l -0.2321,-1.404353 3.83073,-0.482184 c 2.10691,-0.265202 6.05549,-0.475891 8.77463,-0.468191 l 4.94389,0.014 2.4921,-3.180207 c 4.90624,-6.260928 10.62993,-10.916221 14.97424,-12.179146 4.82451,-1.402522 8.98939,0.161565 14.03955,5.272431 5.55869,5.62551 9.21459,12.943941 11.95793,23.937508 0.74683,2.992787 1.39574,5.487429 1.44203,5.543653 0.0463,0.05623 1.28234,-0.348763 2.74677,-0.899978 5.28638,-1.989783 8.91066,-2.651598 14.55844,-2.658448 4.27681,-0.0052 5.81453,0.154699 8.31568,0.864674 13.52118,3.838109 22.945,14.277792 25.13323,27.842532 0.658,4.07888 0.26705,11.60388 -0.79692,15.33918 -3.65585,12.834681 -14.17553,23.236351 -28.27321,27.956081 -4.48187,1.50047 -7.44179,1.98865 -12.15224,2.00423 -4.48987,0.0148 -6.45006,0.43147 -7.61418,1.6184 -0.48638,0.49591 -3.75367,6.23618 -7.26065,12.75617 -7.62204,14.17048 -13.54666,24.83878 -16.7024,30.07549 -2.59935,4.31341 -2.74853,4.88626 0.50211,5.17939 13.34079,1.20301 14.12604,-2.58968 22.7417,-15.23822 l 2.11798,-3.10938 -0.002,-4.1183 -0.002,-4.11827 2.23487,-3.10736 c 1.22917,-1.70904 3.02055,-4.2721 3.98082,-5.69569 1.82288,-2.70244 2.13975,-2.90681 3.24936,-2.09542 0.71655,0.52394 0.96005,0.0292 -4.12251,8.37408 -0.55677,0.91416 -0.66384,1.40855 -0.36891,1.70348 0.77607,0.77606 1.51948,-0.004 3.91719,-4.10513 1.31664,-2.25259 2.55173,-4.19316 2.74464,-4.3124 0.1929,-0.11921 0.6259,0.0584 0.9622,0.39469 0.71111,0.71112 0.67725,0.79418 -2.55393,6.26467 -1.86113,3.15059 -2.14074,4.40254 -0.98346,4.40254 0.46941,0 3.63657,-5.26679 4.97741,-8.2771 0.33116,-0.74349 0.72536,-1.05035 1.24833,-0.97168 1.80476,0.27145 1.64461,1.14993 -1.26776,6.95398 -3.2575,6.49185 -4.43082,7.82154 -7.67681,8.69998 -1.24332,0.33647 -2.68291,0.8257 -3.19908,1.0872 -0.59547,0.30165 -2.23707,2.74846 -4.49121,6.69419 -1.95399,3.42033 -4.38858,7.7921 -5.56474,9.61966 -0.51646,0.8025 0.22515,1.51157 0.22515,1.51157 0,0 2.96953,0.54301 4.0381,0.52202 l 10.66138,-0.2094 c 3.93597,-0.0773 3.69937,0.22255 8.11868,-2.53387 0.78441,-0.48925 4.96621,-4.95703 6.56043,-8.02127 6.00512,-11.54243 11.35481,-25.21436 10.55832,-37.57824 -0.1598,-2.4804 -0.31647,-5.05757 -0.34817,-5.72702 -0.0503,-1.0631 0.26214,-1.46705 2.46874,-3.1912 l 2.52637,-1.974 0.49792,2.41386 c 0.79278,3.84331 1.23939,13.91493 -0.0895,20.67853 -2.1475,10.92998 -5.98271,21.96052 -12.50926,30.98716 -3.03714,4.20056 -7.38594,7.44522 -11.86919,10.04703 -5.65649,3.28269 -12.15032,4.90642 -18.43574,6.71347 -5.47694,1.57461 -11.08736,2.69906 -16.71842,3.57509 -9.23991,1.43746 -18.56754,2.71733 -27.91855,2.74476 -9.33865,0.0274 -18.74507,-0.72047 -27.897256,-2.57752 z m 20.722886,-41.60813 c -1.26309,-5.64715 -3.10442,-13.32838 -4.09185,-17.06936 -0.98742,-3.74098 -2.9274,-11.25158 -4.31107,-16.69021 -1.38367,-5.43862 -2.71839,-10.01365 -2.96605,-10.16671 -0.665853,-0.41153 -1.387603,-0.0159 -1.624673,0.89076 -0.27808,1.06337 0.50082,7.41938 2.610483,21.30209 0.95831,6.30621 1.86746,12.5127 2.02032,13.79217 0.25185,2.10821 0.75304,3.08249 5.34529,10.39095 2.78705,4.43553 5.12288,8.00911 5.19072,7.94129 0.0679,-0.0679 -0.91007,-4.74379 -2.17317,-10.39098 z m 27.28464,-3.7573 c -5.62983,0 11.69698,-16.2266 14.30105,-20.2077 3.20377,-4.89791 2.99224,-7.0475 -1.2171,-12.36812 -2.97647,-3.76228 -5.76939,-9.0385 -6.82795,-12.898941 -0.7384,-2.6929 -0.8542,-2.75242 -3.87468,-1.99186 -0.98314,0.24756 -2.05434,0.84093 -2.4684,1.36732 -0.86932,1.10516 -0.89163,1.39305 -1.96935,25.402451 -0.427,9.51277 -0.88794,18.91381 -1.02429,20.89118 -0.13635,1.97737 -0.14289,3.59523 -0.0145,3.59523 0.12837,0 5.7071,-3.78956 3.09526,-3.78956 z m 42.05828,-28.81491 c 13.99464,-2.89281 25.51268,-15.756991 26.48755,-29.583231 0.88343,-12.52966 -6.14216,-23.636389 -17.53413,-27.719625 -6.52009,-2.336995 -14.92524,-1.717528 -21.58529,1.59084 l -2.91505,1.448046 -0.27157,3.886729 c -0.80053,11.45732 -6.04286,22.12063 -13.23482,26.92065 -1.69368,1.13038 -1.73381,1.4463 -0.63592,5.00676 2.90272,9.413531 9.50515,16.194401 17.9131,18.397131 3.62057,0.94856 7.36124,0.96527 11.77613,0.0527 z m -13.74063,-3.15256 c -4.32014,-1.55415 -8.03019,-4.72677 -9.94411,-8.50374 -1.31287,-2.590801 -1.26521,-2.954571 0.10536,-0.80425 2.40034,3.76601 8.21529,8.14193 12.67598,9.53906 1.47203,0.46104 1.49885,0.49415 0.40923,0.50535 -0.64131,0.007 -2.10222,-0.32482 -3.24646,-0.73642 z m 26.82046,-8.44085 c 3.62339,-3.875861 5.96456,-8.108411 7.37093,-13.325751 0.69759,-2.58793 0.60031,-9.43613 -0.17667,-12.43753 -1.83931,-7.104959 -6.41411,-12.735025 -13.08982,-16.109219 -3.09342,-1.563548 -3.43619,-1.822374 -2.13152,-1.60953 2.46802,0.402635 7.728,3.175934 10.05181,5.299766 8.35205,7.633303 9.81374,20.875293 3.54217,32.089903 -1.46349,2.61696 -4.9112,6.597391 -6.94032,8.012671 -0.72948,0.50882 -0.18252,-0.25594 1.37342,-1.92031 z M 60.65328,101.76291 c 3.779758,-1.838061 6.432685,-5.536361 7.453731,-10.390841 1.66806,-7.93066 -2.194314,-18.03889 -10.024195,-26.234329 -6.426483,-6.726528 -13.622163,-10.72148 -19.443798,-10.794963 -2.890602,-0.0365 -1.469644,-0.684681 1.584293,-0.722709 7.221747,-0.08992 17.153692,6.710952 23.936111,16.390191 1.162407,1.65888 2.197277,3.01614 2.299713,3.01614 0.357744,0 -1.838883,-3.711153 -3.550139,-5.997883 -5.099981,-6.815055 -12.973204,-13.038222 -19.336367,-15.283897 -3.312586,-1.169064 -8.39611,-1.598607 -10.541121,-0.89069 -1.871001,0.617487 -3.871765,3.03654 -4.766792,5.763368 -0.581895,1.772822 -0.719166,3.284257 -0.678413,7.469624 0.04358,4.475242 0.223817,5.912348 1.225267,9.769558 2.430852,9.36275 7.421859,18.64616 12.658043,23.54436 2.724147,2.5483 7.007727,4.928641 9.968992,5.539671 2.906265,0.59969 6.505868,0.13966 9.214675,-1.1776 z M 50.131031,99.663989 c -3.56004,-1.2691 -7.463586,-5.00806 -9.599454,-9.1947 -0.753218,-1.47644 -2.30809,-6.67713 -2.30755,-7.71825 1.69e-4,-0.32495 0.533027,0.53526 1.184124,1.91157 3.812104,8.05812 10.128822,13.22505 16.582184,13.56383 2.468819,0.12961 3.023392,0.02379 4.655439,-0.88838 l 1.852742,-1.03552 -0.931857,0.99192 c -0.512516,0.54555 -1.81102,1.43002 -2.885557,1.96548 -2.260597,1.126511 -6.024496,1.304371 -8.550071,0.40405 z m 89.054509,-8.95513 c 8.53515,-2.01237 15.31133,-9.25563 18.05862,-19.3034 0.7802,-2.853461 0.8852,-4.136447 0.8852,-10.816592 0,-6.486257 -0.13182,-8.195616 -0.91416,-11.854531 -2.62413,-12.272701 -7.48591,-21.850456 -13.01891,-25.647389 -2.19701,-1.507656 -2.37866,-1.559671 -5.44142,-1.55811 -2.78535,0.0016 -3.42586,0.142439 -5.29617,1.166022 -7.86313,4.303321 -17.26821,19.512674 -20.06787,32.452582 -1.01986,4.713769 -0.9346,12.683975 0.18086,16.907278 2.52975,9.57795 9.68277,17.31957 17.3545,18.78254 2.89918,0.55285 5.54431,0.51173 8.25935,-0.1284 z m -8.77464,-3.13136 c -4.27209,-1.14966 -8.26207,-4.45753 -10.54646,-8.74347 -0.6931,-1.30039 -1.18697,-2.43756 -1.09749,-2.52703 0.0895,-0.0895 0.76177,0.63688 1.49399,1.61413 1.67349,2.23349 3.83617,4.01373 6.58024,5.41661 4.01526,2.05276 9.78742,1.7358 14.81866,-0.81372 2.85949,-1.44902 6.36992,-4.596922 8.54803,-7.66525 l 1.99051,-2.80405 -0.2581,1.55469 c -0.46055,2.77417 -2.5436,6.46064 -5.05324,8.94302 -4.81458,4.76226 -10.73871,6.56907 -16.47614,5.02507 z m 2.8107,78.979781 c -0.12183,-0.3175 -0.008,-0.98447 0.25243,-1.48217 0.66371,-1.26723 6.20285,-9.26134 6.41719,-9.26134 0.45104,0 -5.40655,10.67709 -6.08898,11.09884 -0.19751,0.12208 -0.45879,-0.0377 -0.58064,-0.35533 z m -32.32619,-9.48032 c -3.441273,-6.7001 -4.524373,-9.03665 -4.188873,-9.03665 0.21093,0 5.879113,9.15547 7.716103,12.46338 1.09138,1.96529 1.31156,2.65802 0.95737,3.01222 -0.25299,0.25299 -0.56826,0.46 -0.70058,0.46 -0.13233,0 -1.83514,-3.10453 -3.78402,-6.89895 z M 88.455417,135.31127 c -1.3172,-1.87049 -3.022322,-4.2754 -3.789183,-5.34426 l -1.39428,-1.94336 1.418928,1.55469 c 2.054739,2.25131 6.807625,9.13382 6.307605,9.13382 -0.0815,0 -1.22587,-1.5304 -2.54307,-3.40089 z M 62.765473,50.55379 60.683115,48.705594 62.765473,47.329697 c 2.214471,-1.463189 7.068473,-4.231121 7.419951,-4.231121 0.11558,0 0.427458,1.151741 0.693068,2.559417 0.402582,2.133592 0.39374,2.64055 -0.05316,3.047061 -0.53815,0.489516 -5.670881,3.732488 -5.870814,3.709305 -0.05868,-0.0068 -3.720387,-1.860569 -2.189048,-1.860569 z M 166.53195,44.695333 c -0.20894,-0.979667 -0.33381,-1.827294 -0.27749,-1.883613 0.0563,-0.05633 1.35852,0.361352 2.89378,0.928169 1.53526,0.566814 2.6892,1.132752 2.56432,1.257633 -0.12488,0.124881 -1.25612,0.508753 -2.51388,0.853043 l -2.28684,0.625983 z"
         id="path1"
         sodipodi:nodetypes="asasssssssacsscsssssssscsssssscssssssssssssssssssssssssssssssssssssssssssssssssssssssssssscccsssssscssssssssssscsssssssssscsscsscssssssssssscssssscccssssscsscsssssssscsssassscsaaaaaaassssssssssscssssscssssssssccsssssssssssssssssssssssssssssssssssscssssssssssssssssssssscssssssscssscsssscsssscssscssssssscsssssc" /><path
         style="fill:#265541;fill-opacity:1;stroke:none;stroke-width:0.487056"
         d="m 417.32894,145.21228 c -3.67014,1.12604 -9.6582,-2.38283 -10.77728,-3.112 -0.43778,-0.28526 -1.6465,-0.10865 -3.4094,0.49817 -8.26728,2.8457 -17.82322,0.91783 -23.84362,-4.81037 -1.86636,-1.77579 -2.02801,-1.82959 -5.34905,-1.78066 -3.31496,0.0489 -3.49965,0.11727 -5.77202,2.13802 -6.21894,5.53026 -15.8616,7.3035 -23.7787,4.37282 -3.66137,-1.35534 -5.10419,-1.35537 -8.76506,-1.9e-4 -9.53385,3.52921 -24.17785,3.19995 -34.08573,-0.76646 l -3.08336,-1.23436 -1.95901,0.99942 c -1.07744,0.54967 -3.89264,1.59223 -6.25599,2.3168 -3.99199,1.22391 -4.91925,1.31743 -13.06401,1.31743 -8.17586,0 -9.06136,-0.0902 -13.1324,-1.33724 -13.07572,-4.00544 -21.44272,-12.30489 -25.59742,-25.39075 -1.61666,-5.0919 -1.8822,-14.93589 -0.57355,-21.262341 2.05055,-9.913071 7.42811,-18.781185 14.81073,-24.424319 4.35095,-3.325786 8.19426,-5.264577 13.84382,-6.98364 3.90603,-1.188539 5.08228,-1.317396 12.35352,-1.35331 7.13839,-0.03526 8.44273,0.08788 11.6722,1.101971 4.59124,1.441695 8.91373,3.597848 11.62302,5.797817 l 2.10823,1.711902 3.49292,-1.053915 c 11.35184,-3.425178 24.46714,-2.079132 35.27571,3.620451 l 4.02054,2.120114 2.7419,-1.25528 c 1.50804,-0.690401 4.79462,-1.590747 7.30353,-2.000758 4.08989,-0.668386 5.03116,-0.668744 9.1021,-0.0034 2.6771,0.437503 5.6128,1.280617 7.1534,2.054415 l 2.61292,1.312394 2.77452,-1.245131 c 3.55169,-1.593904 6.89529,-2.217373 11.84327,-2.208355 4.37103,0.0079 9.10002,0.954664 11.89726,2.381701 l 1.82665,0.931882 3.39388,-1.629021 c 12.43014,-5.966315 29.75416,-5.308042 40.08309,1.523071 2.02242,1.337541 2.90014,1.649394 3.97674,1.412935 1.17691,-0.258492 1.46697,-0.659659 1.95851,-2.708575 1.58316,-6.599362 8.82902,-13.359286 16.12175,-15.040556 3.03631,-0.699994 9.98424,-0.620258 12.85116,0.147485 5.28556,1.41544 11.05854,5.348923 14.16005,9.648016 l 0.93871,1.301176 3.55641,-0.920288 c 10.41126,-2.694109 23.54672,-1.058369 33.11596,4.124016 l 3.06541,1.660125 3.99698,-1.851136 c 5.48277,-2.539255 9.35649,-3.453392 15.92972,-3.75897 6.04697,-0.281111 12.5165,0.549004 16.86705,2.164364 l 2.34225,0.869678 4.03096,-1.618519 c 2.21707,-0.890202 5.62099,-1.963537 7.56417,-2.385225 4.23003,-0.917937 14.65461,-1.039983 18.0817,-0.211683 l 2.37215,0.57333 2.49833,-2.352418 c 3.17212,-2.986854 6.872,-5.080403 11.50895,-6.512509 2.94389,-0.909181 4.6931,-1.119246 9.0106,-1.082079 5.90531,0.05083 9.09711,0.894668 13.40112,3.542914 l 2.32775,1.432258 3.09433,-0.981292 c 2.49985,-0.792767 3.98351,-0.937965 7.72147,-0.755829 8.48259,0.413335 14.71451,3.994616 18.7516,10.775953 0.44339,0.744824 0.75179,0.689432 3.44114,-0.618125 12.30255,-5.981624 27.17311,-5.800537 40.15047,0.488937 4.51199,2.186768 5.63219,3.002116 9.51582,6.926302 3.54261,3.579621 4.79674,5.255843 6.42506,8.587757 2.97686,6.090559 3.72327,9.395209 3.74076,16.55993 0.0172,7.03901 -0.69905,10.2868 -3.59817,16.31641 -4.58314,9.53225 -14.18373,17.27531 -25.09399,20.23909 -5.82538,1.58247 -16.45824,1.85011 -22.65047,0.57018 -2.54604,-0.52631 -6.06139,-1.5298 -7.81185,-2.23011 l -3.18241,-1.27321 -2.66004,1.01198 c -3.50291,1.33264 -9.10064,2.38199 -12.70789,2.38199 -5.96733,0 -13.51332,-2.24813 -17.33875,-5.16621 l -1.61369,-1.23094 -1.81613,1.3956 c -4.10494,3.15442 -6.76495,4.24536 -12.15028,4.98269 -4.20655,0.57597 -9.59971,0.0496 -12.71905,-1.24135 -1.44981,-0.60004 -1.94283,-0.5629 -4.62703,0.34859 -9.59363,3.2576 -21.345,3.11359 -31.18046,-0.38214 -3.67845,-1.30742 -9.72399,-4.78466 -11.24966,-6.4706 -0.49903,-0.55147 -1.12762,-1.00268 -1.39665,-1.00268 -0.26916,0 -1.72646,1.18 -3.23845,2.62222 -4.62084,4.40758 -9.68433,6.32771 -16.59491,6.29309 -4.29196,-0.0215 -8.43352,-1.09831 -12.0968,-3.14519 l -2.61636,-1.46191 -2.98487,1.46446 c -5.06725,2.48613 -9.99678,3.56016 -17.5964,3.83339 -5.19264,0.18669 -7.86302,0.0488 -11.19728,-0.57803 -4.97535,-0.93542 -10.26581,-2.67247 -12.6759,-4.162 l -1.63718,-1.01184 -2.58712,1.45408 c -4.83243,2.71604 -10.50494,4.0395 -18.4683,4.30884 -7.58386,0.2565 -12.57383,-0.40137 -17.63724,-2.32534 l -2.4455,-0.92923 -4.17914,1.47553 c -7.60015,2.68338 -9.41142,-2.71221 -16.84245,-0.43228 z m -131.18808,-19.2179 c 5.72967,-1.93647 8.32643,-4.48591 8.33216,-8.18029 0.007,-4.36136 -3.1259,-5.1574 -8.74507,-2.22219 -2.9221,1.52637 -3.90773,1.79602 -6.56477,1.79602 -4.17602,0 -7.20833,-1.7799 -9.01312,-5.29056 -1.10217,-2.14393 -1.24431,-3.00579 -1.24431,-7.54504 0,-4.777671 0.0989,-5.304881 1.46117,-7.787011 2.96823,-5.40843 8.32782,-7.197939 14.61171,-4.87871 4.59419,1.69561 5.36757,1.73074 6.78989,0.30843 1.90558,-1.905593 1.68822,-3.943845 -0.65866,-6.176365 -6.45207,-6.137707 -22.24327,-4.557058 -29.29948,2.932793 -5.30802,5.634242 -7.79115,14.499963 -6.29188,22.464423 1.47954,7.85961 7.03204,13.44599 15.21988,15.31273 4.21578,0.96115 11.39935,0.61871 15.40248,-0.73423 z m 147.77765,0.67119 c 5.30727,-1.76796 8.332,-3.49994 8.91347,-6.40731 0.24613,-1.23065 0.0627,-1.76999 -0.94447,-2.77718 -1.58729,-1.58726 -3.11554,-1.59264 -7.97269,-0.028 -9.28724,2.9917 -15.43953,1.91436 -17.52139,-3.06819 -1.00457,-2.40429 -0.27785,-3.02429 3.54484,-3.02429 3.79099,0 12.75192,-1.29366 15.3774,-2.21999 2.92704,-1.03272 4.80685,-2.58366 5.81075,-4.79416 2.45983,-5.416421 -0.73727,-11.299111 -7.23233,-13.307511 -4.0263,-1.245011 -11.5666,-1.10357 -15.42257,0.28929 -5.74579,2.0755 -9.55625,5.49671 -11.73341,10.534761 -1.23677,2.86189 -1.55467,10.99616 -0.56291,14.40257 1.4904,5.11912 4.88309,8.29061 10.94084,10.2275 3.65152,1.16754 10.73442,2.1939 16.80247,0.17251 z M 417.0928,105.96396 c -1.62421,-0.94602 -0.76625,-4.36466 1.66506,-6.634791 3.48808,-3.2568 12.05295,-3.4938 13.25291,-0.36671 1.19147,3.104941 -0.44217,6.038441 -3.89699,6.997721 -2.38099,0.66111 -11.02098,1.31505 -11.02098,0.004 z m 188.84846,19.97532 c 5.68581,-1.67324 9.50333,-6.42932 7.66881,-10.17871 -0.78472,-1.60398 -0.99131,-1.71811 -3.03392,-1.67636 -1.27304,0.026 -3.51891,0.63371 -5.35758,1.44966 -2.61823,1.16184 -3.83992,1.40685 -7.06233,1.41637 -3.2729,0.01 -4.23545,-0.18254 -6.01433,-1.2009 -3.12113,-1.78693 -4.66137,-4.6854 -4.64544,-8.74263 0.0148,-3.75624 1.1621,-6.37921 3.80584,-8.700521 2.92484,-2.56804 5.53498,-2.89243 14.22506,-1.76782 2.1517,0.27845 2.64414,0.17984 3.53102,-0.70707 2.34966,-2.34956 0.29644,-5.700708 -4.33517,-7.076195 -3.32451,-0.987285 -10.11745,-1.000334 -13.8558,-0.02664 -6.0239,1.569058 -10.8008,5.454195 -13.32336,10.836545 -1.18859,2.535751 -1.30546,3.308151 -1.30546,8.629721 0,5.41252 0.10062,6.0496 1.36097,8.61607 2.58064,5.25505 7.85712,8.90345 14.63733,10.12077 3.58005,0.64278 9.87442,0.1348 13.70436,-0.99229 z m -276.8536,-0.39323 c 6.06833,-1.93202 11.50886,-7.13993 13.3968,-12.824 1.10494,-3.32668 0.78559,-9.97206 -0.63131,-13.136391 -2.23318,-4.98738 -8.16779,-9.315006 -14.60712,-10.6518 -4.10392,-0.851977 -12.38776,-0.371067 -15.67908,0.910238 -4.34989,1.693382 -7.51313,4.105752 -9.7229,7.414912 -2.57436,3.855121 -3.56877,7.306671 -3.56877,12.386951 0,9.17029 5.47538,14.90902 16.05505,16.82725 3.74453,0.67892 11.18004,0.21178 14.75733,-0.92716 z m -14.93233,-9.99304 c -3.47188,-1.61664 -4.82511,-3.88759 -4.82006,-8.08887 0.005,-4.16608 1.48732,-6.92608 4.82858,-8.990601 2.12463,-1.31278 2.81662,-1.47998 6.0882,-1.47106 8.33852,0.0228 12.72617,5.083711 10.75475,12.405061 -0.74829,2.77893 -3.90167,6.02179 -6.57818,6.76483 -3.32255,0.92239 -7.50353,0.67032 -10.27329,-0.61936 z m 8.74804,-5.68894 c 1.5626,-1.22914 1.63567,-2.52079 0.21738,-3.84214 -2.24569,-2.09217 -6.72695,-0.80696 -6.72695,1.92926 0,2.73878 3.97475,3.90678 6.50957,1.91288 z M 471.348,126.2436 c 4.39295,-0.9311 6.68853,-2.19838 9.35552,-5.1647 4.98496,-5.54448 6.14683,-16.23976 3.45483,-31.802257 -1.36702,-7.902687 -2.94872,-10.049902 -7.68948,-10.438624 -2.03247,-0.166655 -2.76448,-0.0068 -3.83349,0.837103 -1.90032,1.500216 -2.09731,3.569496 -1.09798,11.533977 0.48306,3.84978 0.77872,7.09918 0.65703,7.22087 -0.12169,0.12169 -1.41877,-0.37115 -2.88242,-1.09522 -2.329,-1.15213 -3.24018,-1.31645 -7.29966,-1.31645 -4.26609,0 -4.90121,0.12938 -7.91104,1.61167 -2.40941,1.18659 -3.65948,2.17403 -4.73953,3.743841 -3.08206,4.47962 -3.68235,11.53777 -1.42712,16.78019 1.10685,2.57292 4.42135,6.01645 6.66526,6.92471 4.65366,1.88363 11.20672,2.33942 16.74808,1.16489 z m -10.77423,-7.18028 c -2.86072,-1.4791 -4.1349,-3.70263 -4.1349,-7.21567 0,-3.02996 1.09936,-5.36575 3.29611,-7.0032 1.87002,-1.3939 7.78954,-1.73152 10.03151,-0.57215 2.42355,1.25326 3.45567,3.38392 3.45779,7.13803 0.002,3.51624 -0.94646,5.51483 -3.5228,7.42331 -2.07552,1.53748 -6.38839,1.64602 -9.12771,0.22968 z m 58.194,6.90849 c 4.55179,-1.16413 7.44799,-2.77597 10.53502,-5.86298 3.6802,-3.68014 4.95229,-6.66189 5.18655,-12.15764 0.16732,-3.92389 0.0307,-5.06927 -0.89839,-7.53707 -2.79747,-7.429211 -10.79593,-11.9452 -21.15678,-11.9452 -9.99879,0 -17.10896,3.970159 -20.79637,11.61222 -1.37122,2.8418 -1.58816,3.84557 -1.7534,8.11359 -0.23525,6.07595 0.76138,9.16142 4.07694,12.62175 5.04796,5.26833 15.70497,7.4831 24.80643,5.15533 z m -13.3168,-10.52304 c -3.32406,-1.65645 -4.63507,-4.02596 -4.60573,-8.3243 0.051,-7.513081 6.94528,-12.007061 14.88075,-9.700141 4.85881,1.41251 7.19039,4.316091 7.16917,8.928291 -0.0206,4.41977 -3.1597,8.73835 -7.15996,9.84926 -3.39194,0.94193 -7.48411,0.64228 -10.28423,-0.75311 z m 9.8398,-5.5847 c 0.70583,-0.55521 1.28345,-1.416 1.28345,-1.91288 0,-1.28588 -2.29439,-2.92233 -4.09737,-2.92233 -2.16397,0 -3.69554,1.21117 -3.69554,2.92233 0,2.73878 3.97473,3.90678 6.50946,1.91288 z m 192.29142,15.90688 c 9.73685,-2.88737 15.84841,-11.91782 14.50168,-21.42787 -1.47931,-10.445261 -10.27838,-16.325187 -23.58475,-15.760288 -4.41671,0.187512 -5.95759,0.468966 -8.70415,1.589817 -4.50559,1.83881 -8.56023,5.60994 -10.66187,9.916631 -1.49992,3.07373 -1.5789,3.51398 -1.58271,8.83606 -0.005,4.84914 0.14499,5.90329 1.10493,7.85155 2.34627,4.76221 7.1528,8.11314 13.53791,9.43795 4.22193,0.876 11.66175,0.66142 15.38896,-0.44385 z m -12.91646,-9.55276 c -2.60649,-1.04716 -4.55686,-2.50195 -5.38887,-4.24658 -1.19163,-2.49902 -1.01619,-7.30043 0.36203,-9.91026 2.28989,-4.335671 7.97488,-6.273451 13.60397,-4.637021 4.85881,1.41251 7.1904,4.316091 7.16934,8.928291 -0.0206,4.41977 -3.15987,8.73835 -7.16013,9.84926 -3.94001,1.09412 -6.01864,1.04788 -8.58634,0.0163 z m 7.47713,-6.31877 c 2.97249,-2.97248 -2.13567,-6.63443 -5.7363,-4.11236 -2.45631,1.7205 -0.5942,5.08647 2.81398,5.08647 1.29878,0 2.27298,-0.3247 2.92232,-0.97411 z m -347.81651,15.53302 c 2.08877,-0.72816 2.93462,-2.56939 3.51045,-7.64157 1.0281,-9.05582 2.79505,-13.24908 5.58287,-13.24908 1.32004,0 2.61672,2.08893 3.62804,5.84469 0.81354,3.02127 2.21699,5.63654 3.51125,6.54307 0.62063,0.43473 2.09285,0.76277 3.42307,0.76277 3.16398,0 4.97708,-1.75202 8.31662,-8.03643 2.81642,-5.30001 4.1942,-6.55478 5.93147,-5.40192 1.55589,1.03248 2.11873,3.93916 2.15888,11.14903 0.0491,8.81058 0.79273,10.30595 5.06483,10.18448 3.91002,-0.11117 5.19666,-3.23765 5.55417,-13.49631 0.20261,-5.81374 0.0911,-7.95243 -0.54597,-10.47172 -1.63403,-6.461661 -5.30364,-9.511561 -10.94607,-9.097501 -4.31577,0.31669 -6.31619,1.8354 -10.2946,7.815561 -4.72639,7.10449 -5.25648,7.14939 -7.8941,0.66841 -0.95542,-2.347601 -2.39956,-4.817841 -3.58228,-6.127641 -1.87297,-2.07421 -2.14737,-2.20642 -5.00912,-2.41342 -5.62381,-0.40679 -9.38687,2.15692 -12.29839,8.378711 -2.53695,5.42133 -3.79521,18.89608 -2.09841,22.47183 1.08796,2.29272 3.27005,3.06426 5.98729,2.11704 z m 198.32748,-0.88385 c 1.66875,-1.66872 1.77829,-3.08326 0.70054,-9.04801 -1.48828,-8.23746 -0.57642,-13.29323 2.76484,-15.33042 1.88,-1.146181 5.64446,-1.299081 10.40204,-0.422481 3.82188,0.704221 5.7486,0.0691 6.52219,-2.14989 2.35382,-6.75226 -12.87589,-10.624003 -23.33209,-5.93152 -5.45468,2.44788 -8.85725,7.59067 -9.54974,14.433701 -0.67691,6.69063 2.43895,17.43639 5.545,19.12282 0.7198,0.39079 2.25693,0.71928 3.41604,0.73 1.69476,0.0157 2.38641,-0.25936 3.53118,-1.4042 z m 76.91758,0.80771 c 2.3511,0 3.31927,-4.35888 4.13149,-11.31391 0.93128,-7.97476 0.95454,-14.373851 0.0598,-16.514911 -1.32093,-3.1617 -4.68542,-4.12302 -8.09545,-2.31309 -3.41461,1.81241 -4.42047,5.452111 -5.13511,18.581491 -0.38021,6.98773 0.10824,9.64543 2.05435,11.17619 1.46503,1.15248 4.80765,0.38423 6.9849,0.38423 z m 38.78368,0.16009 c 4.20464,-0.78754 5.17938,-4.21485 4.96311,-6.40106 -0.28078,-2.83665 -1.5399,-2.97971 -5.30307,-0.60255 -1.83711,1.16043 -3.66742,0.54757 -4.26813,-1.42906 -0.60465,-1.98941 -1.03801,-10.83478 -0.62637,-12.78545 l 0.30834,-1.46118 4.61341,-0.32444 c 4.18102,-0.29404 4.71728,-0.44498 5.71947,-1.61011 1.8963,-2.204591 1.24606,-4.698921 -1.44756,-5.552681 -0.8726,-0.2766 -3.20569,-0.71869 -5.18449,-0.98245 -1.97884,-0.26375 -3.78684,-0.66847 -4.01785,-0.89939 -0.23088,-0.23092 -0.62995,-2.07708 -0.8867,-4.102548 -0.25683,-2.025478 -0.71959,-4.237099 -1.02838,-4.914719 -1.36898,-3.004884 -6.3586,-3.002307 -7.72843,0.0039 -0.30972,0.67982 -0.75565,2.769451 -0.99094,4.64363 -0.23548,1.874187 -0.69057,3.569867 -1.01137,3.768197 -0.32097,0.19833 -1.92651,0.50491 -3.56788,0.68128 -5.60573,0.60234 -7.12462,1.54222 -7.12462,4.40881 0,2.374421 1.85317,3.545071 6.21416,3.925491 2.14527,0.18714 4.1696,0.50649 4.49823,0.70967 0.4091,0.25281 0.71642,2.99612 0.97351,8.69038 0.4181,9.25935 1.00502,11.26028 3.77873,12.88102 4.18255,2.33724 7.57696,2.20358 12.11683,1.35326 z M 634.74174,88.653097 c 2.4567,-1.165807 3.4627,-3.41648 2.6861,-6.009136 -0.74681,-2.492577 -2.4656,-3.432757 -6.24933,-3.418429 -4.96361,0.01879 -9.10775,2.779251 -9.10775,6.066604 0,1.969599 1.22013,3.492226 3.321,4.144495 2.07499,0.644176 7.25638,0.209971 9.34998,-0.783534 z"
         id="path1-6"
         sodipodi:nodetypes="ssssssssscssssssssssscsscsssscssscssssssscsscssscssscsssscsssssscssssscssscssscsssssscsssscssscsssscsssscsssssssssssssssssssssccssscsssssscsssssscssssssssssssssssssssssssssssssssssssssssssssssssscssscsscscsssssssssssscssssscssscssssssssssssssssssssssssssscscssssscsssssscssscsssssscscssssssssscsss" /></g></g></svg>
